<svg width="748" height="534" xmlns="http://www.w3.org/2000/svg" xmlns:xlink="http://www.w3.org/1999/xlink" overflow="hidden"><defs><clipPath id="clip0"><path d="M266 93 1014 93 1014 627 266 627Z" fill-rule="evenodd" clip-rule="evenodd"/></clipPath></defs><g clip-path="url(#clip0)" transform="translate(-266 -93)"><path d="M682 571 752 450 822 571Z" fill="#A6E9A6" fill-rule="evenodd"/><path d="M748 571 858.5 381 969 571Z" fill="#A6E9A6" fill-rule="evenodd"/><path d="M657 352C657 320.52 682.296 295 713.5 295 744.704 295 770 320.52 770 352 770 383.48 744.704 409 713.5 409 682.296 409 657 383.48 657 352Z" fill="#A6E9A6" fill-rule="evenodd"/><path d="M722.674 329.959C700.367 329.959 682.284 347.989 682.284 370.231L682.284 531.316C682.284 553.558 700.367 571.589 722.674 571.589L884.228 571.589C906.535 571.589 924.618 553.558 924.618 531.316L924.618 370.231C924.618 347.989 906.535 329.959 884.228 329.959ZM360.087 101.5 920.913 101.5C968.734 101.5 1007.5 140.154 1007.5 187.835L1007.5 533.165C1007.5 580.846 968.734 619.5 920.913 619.5L360.087 619.5C312.266 619.5 273.5 580.846 273.5 533.165L273.5 187.835C273.5 140.154 312.266 101.5 360.087 101.5Z" stroke="#2B292D" stroke-width="13" stroke-linecap="round" stroke-linejoin="round" stroke-miterlimit="10" fill="#FFFFFF" fill-rule="evenodd"/><path d="M345.5 193.167C345.5 192.246 346.246 191.5 347.167 191.5L901.833 191.5C902.754 191.5 903.5 192.246 903.5 193.167L903.5 199.833C903.5 200.754 902.754 201.5 901.833 201.5L347.167 201.5C346.246 201.5 345.5 200.754 345.5 199.833Z" stroke="#A6E9A6" stroke-width="13" stroke-linecap="round" stroke-linejoin="round" stroke-miterlimit="10" fill="#A6E9A6" fill-rule="evenodd"/><path d="M345.5 267.167C345.5 266.246 346.246 265.5 347.167 265.5L901.833 265.5C902.754 265.5 903.5 266.246 903.5 267.167L903.5 273.833C903.5 274.754 902.754 275.5 901.833 275.5L347.167 275.5C346.246 275.5 345.5 274.754 345.5 273.833Z" stroke="#A6E9A6" stroke-width="13" stroke-linecap="round" stroke-linejoin="round" stroke-miterlimit="10" fill="#A6E9A6" fill-rule="evenodd"/><path d="M360.5 188.5 907.978 188.5" stroke="#2B292D" stroke-width="13" stroke-linecap="round" stroke-miterlimit="8" fill="none" fill-rule="evenodd"/><path d="M358.5 260.5 703.022 260.5" stroke="#2B292D" stroke-width="13" stroke-linecap="round" stroke-miterlimit="8" fill="none" fill-rule="evenodd"/><path d="M735.5 259.5 762.631 259.5" stroke="#2B292D" stroke-width="13" stroke-linecap="round" stroke-miterlimit="8" fill="none" fill-rule="evenodd"/><path d="M345.5 372.334C345.5 371.321 346.321 370.5 347.333 370.5L578.667 370.5C579.679 370.5 580.5 371.321 580.5 372.334L580.5 379.667C580.5 380.679 579.679 381.5 578.667 381.5L347.333 381.5C346.321 381.5 345.5 380.679 345.5 379.667Z" stroke="#A6E9A6" stroke-width="13" stroke-linecap="round" stroke-linejoin="round" stroke-miterlimit="10" fill="#A6E9A6" fill-rule="evenodd"/><path d="M794.5 260.5 908.239 260.5" stroke="#2B292D" stroke-width="13" stroke-linecap="round" stroke-miterlimit="8" fill="none" fill-rule="evenodd"/><path d="M354.5 367.5 580.628 367.5" stroke="#2B292D" stroke-width="13" stroke-linecap="round" stroke-miterlimit="8" fill="none" fill-rule="evenodd"/><path d="M354.133 466.405 355.371 469.1C361.167 480.254 368.499 491.777 377.216 503.087 394.649 525.707 414.318 543.191 432.024 553.172L434.397 554.288 430.519 555.788C428.927 556.183 427.23 556.403 425.444 556.45L423.83 556.343 423.801 556.345 423.731 556.336 419.834 556.077 417.492 555.541 417.2 555.503 416.797 555.381 413.787 554.692 410.622 553.514 410.082 553.351 409.646 553.151 407.4 552.315 403.255 550.222 402.594 549.919 402.29 549.735 400.771 548.968 395.184 545.424 394.88 545.24 394.811 545.188 393.997 544.672C391.727 543.084 389.448 541.341 387.177 539.448 382.719 535.73 378.47 531.569 374.558 527.112L374.515 527.059 374.468 527.009C370.556 522.553 366.982 517.8 363.873 512.897L361.671 509.029 359.666 505.556 359.543 505.29 359.037 504.401 357.336 500.543 356.285 498.279 356.072 497.674 355.397 496.142 354.386 492.864 353.826 491.269 353.631 490.419 352.967 488.269 352.539 485.664 352.3 484.626 352.208 483.658 351.759 480.93 351.767 479.005 351.714 478.45 351.773 477.545 351.786 474.276 352.068 472.988 352.078 472.84 352.204 472.366 353.06 468.454Z" fill="#A6E9A6" fill-rule="evenodd"/><path d="M362.232 463.122 362.255 463.148 375.222 451.765C377.1 450.116 379.958 450.302 381.607 452.18L401.421 474.749C403.069 476.627 402.883 479.486 401.005 481.134L388.029 492.526 416.159 524.587 429.491 512.883C431.464 511.151 434.469 511.346 436.201 513.32L455.711 535.542C457.443 537.516 457.248 540.52 455.275 542.253L441.934 553.965 441.968 554.004 441.214 554.597 440.982 554.801 440.881 554.859 437.792 557.287C435.064 558.788 431.848 559.572 428.276 559.666L426.662 559.559 426.633 559.561 426.562 559.552 422.666 559.294 420.323 558.757 420.032 558.72 419.629 558.598 416.619 557.909 413.453 556.73 412.914 556.567 412.478 556.367 410.232 555.532 406.087 553.439 405.425 553.136 405.122 552.951 403.603 552.184 398.016 548.641 397.712 548.456 397.643 548.404 396.829 547.888C394.558 546.3 392.279 544.558 390.009 542.664 385.551 538.946 381.301 534.785 377.39 530.329L377.347 530.276 377.299 530.226C373.388 525.769 369.813 521.016 366.705 516.114L364.503 512.245 362.498 508.773 362.374 508.507 361.868 507.618 360.168 503.759 359.116 501.496 358.904 500.89 358.229 499.358 357.217 496.081 356.658 494.486 356.463 493.636 355.799 491.485 355.37 488.88 355.132 487.843 355.04 486.874 354.591 484.147 354.599 482.222 354.546 481.666 354.605 480.762 354.618 477.493 354.9 476.205 354.909 476.056 355.036 475.582 355.892 471.671C356.526 469.886 357.37 468.264 358.426 466.831L361.583 463.754 361.62 463.705 361.751 463.59Z" stroke="#2B292D" stroke-width="13.3333" stroke-linecap="round" stroke-miterlimit="8" fill="none" fill-rule="evenodd"/><path d="M363.695 510.793C359.893 503.91 357.194 497.071 355.767 490.705" stroke="#2B292D" stroke-width="13.3333" stroke-linecap="round" stroke-miterlimit="8" fill="none" fill-rule="evenodd"/><path d="M356.537 470.093C356.99 469.092 357.515 468.157 358.109 467.291" stroke="#2B292D" stroke-width="13.3333" stroke-linecap="round" stroke-miterlimit="8" fill="none" fill-rule="evenodd"/><path d="M354.492 482.585C354.418 480.971 354.447 479.418 354.58 477.936" stroke="#2B292D" stroke-width="13.3333" stroke-linecap="round" stroke-miterlimit="8" fill="none" fill-rule="evenodd"/><path d="M512 486 559 514.34 512 546Z" fill="#A6E9A6" fill-rule="evenodd"/><path d="M511.5 479.334C511.5 471.694 517.694 465.5 525.334 465.5L592.666 465.5C600.307 465.5 606.5 471.694 606.5 479.334L606.5 534.666C606.5 542.307 600.307 548.5 592.666 548.5L525.334 548.5C517.694 548.5 511.5 542.307 511.5 534.666Z" stroke="#2B292D" stroke-width="13" stroke-linecap="round" stroke-linejoin="round" stroke-miterlimit="10" fill="none" fill-rule="evenodd"/><path d="M10.823 44C2.77977 37.7196 2.41066 37.5204 0 27.3461L46.7592 0 94 27.7215C91.9983 38.16 91.5654 39.3229 82.3959 43.8337L10.823 44Z" stroke="#2B292D" stroke-width="13" stroke-linecap="round" stroke-linejoin="round" stroke-miterlimit="10" fill="none" fill-rule="evenodd" transform="matrix(1 0 0 -1 512.5 510.5)"/></g></svg>