<svg width="258" height="258" xmlns="http://www.w3.org/2000/svg" xmlns:xlink="http://www.w3.org/1999/xlink" overflow="hidden"><defs><clipPath id="clip0"><path d="M514 431 772 431 772 689 514 689Z" fill-rule="evenodd" clip-rule="evenodd"/></clipPath></defs><g clip-path="url(#clip0)" transform="translate(-514 -431)"><path d="M575.49 515.106 575.531 515.153 598.826 494.702C602.2 491.74 607.336 492.074 610.298 495.448L645.893 535.993C648.855 539.366 648.521 544.503 645.147 547.464L621.836 567.93 672.37 625.528 696.321 604.502C699.867 601.389 705.264 601.74 708.377 605.285L743.426 645.209C746.538 648.754 746.188 654.152 742.642 657.264L718.675 678.305 718.736 678.376 717.382 679.44 716.965 679.807 716.784 679.911 711.235 684.273C706.333 686.971 700.556 688.378 694.139 688.547L691.239 688.355 691.188 688.359 691.06 688.343 684.061 687.878 679.852 686.914 679.329 686.847 678.604 686.628 673.197 685.39 667.51 683.273 666.541 682.98 665.757 682.621 661.723 681.119 654.276 677.36 653.088 676.815 652.542 676.484 649.813 675.106 639.776 668.74 639.23 668.409 639.106 668.315 637.645 667.388C633.565 664.536 629.471 661.405 625.392 658.004 617.383 651.323 609.749 643.849 602.721 635.843L602.644 635.747 602.559 635.658C595.532 627.651 589.11 619.113 583.526 610.305L579.57 603.356 575.969 597.117 575.747 596.639 574.837 595.042 571.783 588.11 569.893 584.044 569.512 582.956 568.299 580.204 566.482 574.316 565.477 571.451 565.126 569.924 563.934 566.06 563.163 561.38 562.735 559.516 562.57 557.776 561.764 552.877 561.778 549.418 561.683 548.42 561.788 546.795 561.812 540.922 562.318 538.608 562.335 538.342 562.563 537.49 564.1 530.464C565.239 527.256 566.755 524.343 568.652 521.769L574.325 516.241 574.392 516.153 574.627 515.946Z" fill="#A6E9A6" fill-rule="evenodd"/><path d="M573.579 503.76 573.62 503.807 596.915 483.356C600.289 480.394 605.425 480.728 608.387 484.102L643.982 524.647C646.943 528.021 646.61 533.157 643.236 536.119L619.924 556.584 670.459 614.183 694.41 593.156C697.955 590.043 703.353 590.394 706.465 593.94L741.514 633.863C744.627 637.409 744.276 642.806 740.731 645.919L716.763 666.96 716.825 667.03 715.471 668.095 715.053 668.461 714.872 668.565 709.323 672.927C704.422 675.625 698.645 677.033 692.227 677.202L689.328 677.009 689.276 677.014 689.149 676.997 682.149 676.533 677.94 675.568 677.417 675.502 676.693 675.283 671.286 674.044 665.599 671.928 664.63 671.635 663.846 671.275 659.811 669.774 652.365 666.014 651.176 665.469 650.631 665.139 647.902 663.761 637.865 657.395 637.318 657.063 637.195 656.97 635.733 656.043C631.653 653.19 627.559 650.06 623.481 646.658 615.471 639.978 607.838 632.503 600.81 624.497L600.733 624.402 600.648 624.312C593.62 616.305 587.199 607.767 581.615 598.96L577.659 592.01 574.057 585.771 573.835 585.294 572.926 583.696 569.871 576.764 567.982 572.698 567.6 571.61 566.388 568.859 564.57 562.97 563.566 560.105 563.215 558.578 562.022 554.714 561.252 550.034 560.824 548.171 560.659 546.431 559.852 541.531 559.866 538.073 559.771 537.075 559.877 535.449 559.9 529.576 560.407 527.263 560.424 526.996 560.651 526.144 562.189 519.118C563.328 515.911 564.844 512.998 566.741 510.423L572.413 504.896 572.48 504.807 572.716 504.601Z" stroke="#2B292D" stroke-width="13.3333" stroke-linecap="round" stroke-miterlimit="8" fill="none" fill-rule="evenodd"/><path d="M568.131 573.047C559.639 552.389 557.528 533.573 562.166 519.867" stroke="#FFFFFF" stroke-width="14.6667" stroke-linecap="round" stroke-miterlimit="8" fill="none" fill-rule="evenodd"/><path d="M576.207 589.401C569.377 577.036 564.528 564.749 561.966 553.312" stroke="#2B292D" stroke-width="13.3333" stroke-linecap="round" stroke-miterlimit="8" fill="none" fill-rule="evenodd"/><path d="M563.348 516.283C564.162 514.486 565.105 512.806 566.173 511.249" stroke="#2B292D" stroke-width="13.3333" stroke-linecap="round" stroke-miterlimit="8" fill="none" fill-rule="evenodd"/><path d="M559.674 538.725C559.542 535.825 559.594 533.036 559.832 530.372" stroke="#2B292D" stroke-width="13.3333" stroke-linecap="round" stroke-miterlimit="8" fill="none" fill-rule="evenodd"/><path d="M0 0 20.5581 20.5582" stroke="#2B292D" stroke-width="13.3333" stroke-linecap="round" stroke-miterlimit="8" fill="none" fill-rule="evenodd" transform="matrix(0.751492 -0.659742 -0.659742 -0.751492 636.993 470.38)"/><path d="M0 0 25.6737 0.000104987" stroke="#2B292D" stroke-width="13.3333" stroke-linecap="round" stroke-miterlimit="8" fill="none" fill-rule="evenodd" transform="matrix(0.751492 -0.659742 -0.659742 -0.751492 648.283 483.24)"/><path d="M659.987 496.04 688.999 497.926" stroke="#2B292D" stroke-width="13.3333" stroke-linecap="round" stroke-miterlimit="8" fill="none" fill-rule="evenodd"/></g></svg>