<svg width="1121" height="717" xmlns="http://www.w3.org/2000/svg" xmlns:xlink="http://www.w3.org/1999/xlink" overflow="hidden"><defs><clipPath id="clip0"><path d="M87 4 1208 4 1208 721 87 721Z" fill-rule="evenodd" clip-rule="evenodd"/></clipPath></defs><g clip-path="url(#clip0)" transform="translate(-87 -4)"><path d="M469 226.5C469 222.91 471.91 220 475.5 220L899.5 220C903.09 220 906 222.91 906 226.5L906 226.5C906 230.09 903.09 233 899.5 233L475.5 233C471.91 233 469 230.09 469 226.5Z" fill="#A6E9A6" fill-rule="evenodd"/><path d="M361 708.333C361 707.045 362.045 706 363.333 706L1198.67 706C1199.96 706 1201 707.045 1201 708.333L1201 717.667C1201 718.955 1199.96 720 1198.67 720L363.333 720C362.045 720 361 718.955 361 717.667Z" fill="#A6E9A6" fill-rule="evenodd"/><path d="M715 699 1085.53 699" stroke="#2B292D" stroke-width="8" stroke-linecap="round" stroke-miterlimit="8" fill="none" fill-rule="evenodd"/><path d="M505 230.5C505 226.91 507.91 224 511.5 224L569.5 224C573.09 224 576 226.91 576 230.5L576 256.5C576 260.09 573.09 263 569.5 263L511.5 263C507.91 263 505 260.09 505 256.5Z" stroke="#2B292D" stroke-width="8" stroke-linecap="round" stroke-linejoin="round" stroke-miterlimit="10" fill="none" fill-rule="evenodd"/><path d="M98 19.3218 98 519.879 2.6875 585 1.28354 582.537C0.457096 580.225 0 577.684 0 575.016L0 19.3218C0 8.6507 7.31286 0 16.3337 0L81.6663 0C90.6871 0 98 8.6507 98 19.3218Z" stroke="#2B292D" stroke-width="8" stroke-linecap="round" stroke-linejoin="round" stroke-miterlimit="10" fill="none" fill-rule="evenodd" transform="matrix(-4.37114e-08 -1 -1 4.37114e-08 1065 223)"/><path d="M1065 109.5C1065 103.701 1069.7 99 1075.5 99L1117.5 99C1123.3 99 1128 103.701 1128 109.5L1128 239.5C1128 245.299 1123.3 250 1117.5 250L1075.5 250C1069.7 250 1065 245.299 1065 239.5Z" stroke="#2B292D" stroke-width="8" stroke-linecap="round" stroke-linejoin="round" stroke-miterlimit="10" fill="none" fill-rule="evenodd"/><path d="M0 0 97.9838 95.4741" stroke="#2B292D" stroke-width="8" stroke-linecap="round" stroke-miterlimit="8" fill="none" fill-rule="evenodd" transform="matrix(-4.37114e-08 1 1 4.37114e-08 761 125)"/><path d="M856.474 125 761 222.984" stroke="#2B292D" stroke-width="8" stroke-linecap="round" stroke-miterlimit="8" fill="none" fill-rule="evenodd"/><path d="M0 0 97.9838 95.4741" stroke="#2B292D" stroke-width="8" stroke-linecap="round" stroke-miterlimit="8" fill="none" fill-rule="evenodd" transform="matrix(-4.37114e-08 1 1 4.37114e-08 655 125)"/><path d="M750.474 125 655 222.984" stroke="#2B292D" stroke-width="8" stroke-linecap="round" stroke-miterlimit="8" fill="none" fill-rule="evenodd"/><path d="M0 0 97.9838 95.4741" stroke="#2B292D" stroke-width="8" stroke-linecap="round" stroke-miterlimit="8" fill="none" fill-rule="evenodd" transform="matrix(-4.37114e-08 1 1 4.37114e-08 548 125)"/><path d="M643.474 125 548 222.984" stroke="#2B292D" stroke-width="8" stroke-linecap="round" stroke-miterlimit="8" fill="none" fill-rule="evenodd"/><path d="M503 189 537.337 223.427" stroke="#2B292D" stroke-width="8" stroke-linecap="round" stroke-miterlimit="8" fill="none" fill-rule="evenodd"/><path d="M1137.5 142C1159.87 142 1178 156.327 1178 174 1178 191.673 1159.87 206 1137.5 206 1136.73 206 1135.96 205.983 1135.19 205.948" stroke="#2B292D" stroke-width="8" stroke-linecap="round" stroke-miterlimit="8" fill="none" fill-rule="evenodd"/><path d="M0 0 97.9838 95.4741" stroke="#2B292D" stroke-width="8" stroke-linecap="round" stroke-miterlimit="8" fill="none" fill-rule="evenodd" transform="matrix(-4.37114e-08 1 1 4.37114e-08 858 125)"/><path d="M953.474 125 858 222.984" stroke="#2B292D" stroke-width="8" stroke-linecap="round" stroke-miterlimit="8" fill="none" fill-rule="evenodd"/><path d="M938.311 10 979.689 10 1006.33 112.883 1006.66 113.503 1006.95 115.289 1008 119.334 1007.61 119.334 1007.95 121.445 1007.95 678.597C1007.95 689.865 1000.64 699 991.622 699L926.325 699C917.309 699 910 689.865 910 678.597L910 121.445 910.341 119.334 910 119.334 910.907 115.833 911.283 113.503 911.719 112.694Z" stroke="#2B292D" stroke-width="8" stroke-linecap="round" stroke-linejoin="round" stroke-miterlimit="10" fill="#FFFFFF" fill-rule="evenodd"/><path d="M923 142C926.314 142 929 144.686 929 148L929 685C929 688.314 926.314 691 923 691L923 691C919.686 691 917 688.314 917 685L917 148C917 144.686 919.686 142 923 142Z" fill="#A6E9A6" fill-rule="evenodd"/><path d="M0 0 97.9308 103.329" stroke="#2B292D" stroke-width="8" stroke-linecap="round" stroke-miterlimit="8" fill="none" fill-rule="evenodd" transform="matrix(1 0 0 -1 910 678.329)"/><path d="M910 575 1007.93 678.33" stroke="#2B292D" stroke-width="8" stroke-linecap="round" stroke-miterlimit="8" fill="none" fill-rule="evenodd"/><path d="M0 0 97.9308 101.691" stroke="#2B292D" stroke-width="8" stroke-linecap="round" stroke-miterlimit="8" fill="none" fill-rule="evenodd" transform="matrix(1 0 0 -1 910 563.691)"/><path d="M910 462 1007.93 563.691" stroke="#2B292D" stroke-width="8" stroke-linecap="round" stroke-miterlimit="8" fill="none" fill-rule="evenodd"/><path d="M0 0 97.9308 101.691" stroke="#2B292D" stroke-width="8" stroke-linecap="round" stroke-miterlimit="8" fill="none" fill-rule="evenodd" transform="matrix(1 0 0 -1 910 450.691)"/><path d="M910 349 1007.93 450.691" stroke="#2B292D" stroke-width="8" stroke-linecap="round" stroke-miterlimit="8" fill="none" fill-rule="evenodd"/><path d="M0 0 97.9308 101.691" stroke="#2B292D" stroke-width="8" stroke-linecap="round" stroke-miterlimit="8" fill="none" fill-rule="evenodd" transform="matrix(1 0 0 -1 910 337.691)"/><path d="M910 236 1007.93 337.691" stroke="#2B292D" stroke-width="8" stroke-linecap="round" stroke-miterlimit="8" fill="none" fill-rule="evenodd"/><path d="M0 0 97.9308 101.691" stroke="#2B292D" stroke-width="8" stroke-linecap="round" stroke-miterlimit="8" fill="none" fill-rule="evenodd" transform="matrix(1 0 0 -1 910 224.691)"/><path d="M910 123 1007.93 224.691" stroke="#2B292D" stroke-width="8" stroke-linecap="round" stroke-miterlimit="8" fill="none" fill-rule="evenodd"/><path d="M0 0 0.000104987 86.4422" stroke="#2B292D" stroke-width="8" stroke-linecap="round" stroke-miterlimit="8" fill="none" fill-rule="evenodd" transform="matrix(-1 -8.74228e-08 -8.74228e-08 1 541 263)"/><path d="M404 405.511C404 401.363 407.363 398 411.511 398L639.489 398C643.637 398 647 401.363 647 405.511L647 420.489C647 424.637 643.637 428 639.489 428L411.511 428C407.363 428 404 424.637 404 420.489Z" fill="#A6E9A6" fill-rule="evenodd"/><path d="M418 410 419.947 410.392 662.419 410.392 663 410.275 663 541.828C663 560.148 648.092 575 629.702 575L451.298 575C432.908 575 418 560.148 418 541.828Z" stroke="#2B292D" stroke-width="8" stroke-linecap="round" stroke-linejoin="round" stroke-miterlimit="10" fill="none" fill-rule="evenodd"/><path d="M418 408 662.563 408" stroke="#2B292D" stroke-width="8" stroke-linecap="round" stroke-miterlimit="8" fill="none" fill-rule="evenodd"/><path d="M661.509 380.192C662.655 383.874 663.147 387.729 662.962 391.581" stroke="#2B292D" stroke-width="8" stroke-linecap="round" stroke-miterlimit="8" fill="none" fill-rule="evenodd"/><path d="M630.455 357.003C635.69 357.075 640.832 358.392 645.458 360.844" stroke="#2B292D" stroke-width="8" stroke-linecap="round" stroke-miterlimit="8" fill="none" fill-rule="evenodd"/><path d="M0 0 0.000104987 19.7814" stroke="#2B292D" stroke-width="8" stroke-linecap="round" stroke-miterlimit="8" fill="none" fill-rule="evenodd" transform="matrix(1 0 0 -1 663 409.781)"/><path d="M418.008 390.721C417.614 372.713 431.733 357.716 449.733 357.024" stroke="#2B292D" stroke-width="8" stroke-linecap="round" stroke-miterlimit="8" fill="none" fill-rule="evenodd"/><path d="M418.016 410.203 418 392" stroke="#2B292D" stroke-width="8" stroke-linecap="round" stroke-miterlimit="8" fill="none" fill-rule="evenodd"/><path d="M450 357 604.203 357" stroke="#2B292D" stroke-width="8" stroke-linecap="round" stroke-miterlimit="8" fill="none" fill-rule="evenodd"/><path d="M1111 699 1127.78 699" stroke="#2B292D" stroke-width="8" stroke-linecap="round" stroke-miterlimit="8" fill="none" fill-rule="evenodd"/><path d="M1153 699 1203.35 699" stroke="#2B292D" stroke-width="8" stroke-linecap="round" stroke-miterlimit="8" fill="none" fill-rule="evenodd"/><path d="M979.5 10.5001 1006.14 113.404" stroke="#FFFFFF" stroke-width="11" stroke-linecap="round" stroke-miterlimit="8" fill="none" fill-rule="evenodd"/><path d="M938 10 979.372 10.0001" stroke="#2B292D" stroke-width="8" stroke-linecap="round" stroke-miterlimit="8" fill="none" fill-rule="evenodd"/><path d="M1008.45 121.047 998 81" stroke="#2B292D" stroke-width="8" stroke-linecap="round" stroke-miterlimit="8" fill="none" fill-rule="evenodd"/><path d="M979 10 982.818 23.6731" stroke="#2B292D" stroke-width="8" stroke-linecap="round" stroke-miterlimit="8" fill="none" fill-rule="evenodd"/><path d="M989 46 992.058 58.0531" stroke="#2B292D" stroke-width="8" stroke-linecap="round" stroke-miterlimit="8" fill="none" fill-rule="evenodd"/><path d="M133.575 491 133.576 491 272.425 491 272.425 491C278.818 491 284 495.411 284 500.851 284 522.95 284 545.05 284 567.149 284 572.589 278.818 577 272.425 577L272.425 577C266.032 577 260.85 572.589 260.85 567.148L260.85 510.703 145.15 510.703 145.15 567.149C145.15 572.589 139.968 577 133.575 577L133.575 577C127.182 577 122 572.589 122 567.148L122 500.852 122 500.851 122 500.852C122 498.131 123.296 495.668 125.39 493.886L125.39 493.885 125.39 493.885C127.485 492.103 130.379 491 133.575 491Z" stroke="#2B292D" stroke-width="8" stroke-linecap="round" stroke-linejoin="round" stroke-miterlimit="10" fill="#FFFFFF" fill-rule="evenodd"/><path d="M108.533 519.828 163.009 503.931C167.251 502.693 171.66 505.01 172.855 509.106L181.512 538.771C182.707 542.867 180.237 547.191 175.994 548.429L156.232 554.196 179.685 634.565C180.144 636.138 179.196 637.798 177.566 638.273L165.768 641.717C164.139 642.192 162.446 641.302 161.987 639.73L138.533 559.361 121.519 564.326C117.276 565.565 112.867 563.248 111.672 559.152L103.015 529.487C101.82 525.391 104.29 521.067 108.533 519.828Z" stroke="#2B292D" stroke-width="8" stroke-linecap="round" stroke-linejoin="round" stroke-miterlimit="10" fill="#FFFFFF" fill-rule="evenodd"/><path d="M243.194 497 248.334 497.518 235.8 519.209C234.652 521.196 235.333 523.738 237.322 524.885L251.729 533.196C253.718 534.343 256.261 533.662 257.41 531.675L269.158 511.343 271.579 515.799C273.138 519.482 274 523.531 274 527.781 274 544.78 260.208 558.561 243.194 558.561L237.144 557.952 195.237 630.478C194.396 631.933 192.533 632.432 191.076 631.592L180.524 625.504C179.067 624.664 178.567 622.802 179.409 621.346L221.109 549.179 217.65 544.99C214.328 540.078 212.389 534.155 212.389 527.781 212.389 510.781 226.181 497 243.194 497Z" stroke="#2B292D" stroke-width="8" stroke-linecap="round" stroke-linejoin="round" stroke-miterlimit="10" fill="#FFFFFF" fill-rule="evenodd"/><path d="M88 610.167C88 599.029 97.0291 590 108.167 590L267.833 590C278.971 590 288 599.029 288 610.167L288 690.833C288 701.971 278.971 711 267.833 711L108.167 711C97.0291 711 88 701.971 88 690.833Z" fill="#A6E9A6" fill-rule="evenodd"/><path d="M104 597.334C104 586.104 113.104 577 124.334 577L280.666 577C291.896 577 301 586.104 301 597.334L301 678.666C301 689.896 291.896 699 280.666 699L124.334 699C113.104 699 104 689.896 104 678.666Z" stroke="#2B292D" stroke-width="8" stroke-linecap="round" stroke-linejoin="round" stroke-miterlimit="10" fill="none" fill-rule="evenodd"/><path d="M245.778 607.116C248.703 602.872 254.459 598.725 262.11 595.348" stroke="#FFFFFF" stroke-width="13.3333" stroke-linecap="round" stroke-miterlimit="8" fill="none" fill-rule="evenodd"/><path d="M238.731 618.178C235.982 605.281 244.522 592.542 257.805 589.725 261.157 589.014 264.618 588.991 267.964 589.659" stroke="#2B292D" stroke-width="8" stroke-linecap="round" stroke-miterlimit="8" fill="none" fill-rule="evenodd"/><path d="M238.548 619.753C241.892 613.878 252.526 607.659 266.993 603.117" stroke="#2B292D" stroke-width="8" stroke-linecap="round" stroke-miterlimit="8" fill="none" fill-rule="evenodd"/><path d="M323.534 563.645C327.481 562.877 331.335 565.616 332.142 569.763L337.988 599.797C338.795 603.945 336.249 607.929 332.302 608.697L313.918 612.276 329.755 693.645C330.065 695.237 329.088 696.767 327.572 697.062L316.596 699.199C315.08 699.494 313.6 698.442 313.291 696.85L297.453 615.48 281.624 618.561C277.677 619.329 273.823 616.59 273.016 612.443L267.171 582.409C266.363 578.262 268.909 574.277 272.856 573.509ZM345.103 562.392C346.224 562.174 347.309 562.905 347.527 564.026L354.427 599.477C354.645 600.597 353.914 601.683 352.793 601.901L344.675 603.481C343.555 603.699 342.469 602.967 342.251 601.846L335.351 566.396C335.133 565.275 335.865 564.19 336.985 563.972Z" stroke="#2B292D" stroke-width="8" stroke-linecap="round" stroke-linejoin="round" stroke-miterlimit="10" fill="#FFFFFF" fill-rule="evenodd"/><path d="M635.5 382C635.5 380.619 636.619 379.5 638 379.5 639.381 379.5 640.5 380.619 640.5 382 640.5 383.381 639.381 384.5 638 384.5 636.619 384.5 635.5 383.381 635.5 382Z" stroke="#A6E9A6" stroke-width="13" stroke-linecap="round" stroke-linejoin="round" stroke-miterlimit="10" fill="none" fill-rule="evenodd"/><path d="M606.5 382C606.5 380.619 607.619 379.5 609 379.5 610.381 379.5 611.5 380.619 611.5 382 611.5 383.381 610.381 384.5 609 384.5 607.619 384.5 606.5 383.381 606.5 382Z" stroke="#2B292D" stroke-width="13" stroke-linecap="round" stroke-linejoin="round" stroke-miterlimit="10" fill="none" fill-rule="evenodd"/></g></svg>