<svg width="259" height="260" xmlns="http://www.w3.org/2000/svg" xmlns:xlink="http://www.w3.org/1999/xlink" overflow="hidden"><defs><clipPath id="clip0"><path d="M511 43 770 43 770 303 511 303Z" fill-rule="evenodd" clip-rule="evenodd"/></clipPath></defs><g clip-path="url(#clip0)" transform="translate(-511 -43)"><path d="M558 142C558 97.8172 593.817 62 638 62 682.183 62 718 97.8172 718 142 718 186.183 682.183 222 638 222 593.817 222 558 186.183 558 142Z" fill="#A6E9A6" fill-rule="evenodd"/><path d="M694.5 215.5 694.5 296.5 693.761 296.5 644.761 254.349 596.5 295.864 596.5 216.587 606.092 221.832C617.899 226.863 630.88 229.645 644.506 229.645 658.132 229.645 671.114 226.863 682.921 221.832Z" stroke="#2B292D" stroke-width="13" stroke-linecap="round" stroke-linejoin="round" stroke-miterlimit="10" fill="none" fill-rule="evenodd"/><path d="M644.5 51.5001C668.734 51.5001 691.662 62.4166 706.847 81.1852" stroke="#2B292D" stroke-width="13" stroke-linecap="round" stroke-miterlimit="8" fill="none" fill-rule="evenodd"/><path d="M716.198 95.7347C717.751 98.8514 719.096 102.066 720.224 105.358" stroke="#2B292D" stroke-width="13" stroke-linecap="round" stroke-miterlimit="8" fill="none" fill-rule="evenodd"/><path d="M724.002 122.147C728.923 165.78 697.317 205.116 653.409 210.005 609.501 214.895 569.918 183.487 564.998 139.853 560.077 96.2198 591.683 56.884 635.591 51.9945 639.766 51.5296 643.971 51.3922 648.167 51.5836" stroke="#2B292D" stroke-width="13" stroke-linecap="round" stroke-miterlimit="8" fill="none" fill-rule="evenodd"/><path d="M0 0 12.1568 20.2054" stroke="#2B292D" stroke-width="13" stroke-linecap="round" stroke-miterlimit="8" fill="none" fill-rule="evenodd" transform="matrix(-1 -8.74228e-08 -8.74228e-08 1 644.657 96.5001)"/><path d="M0 0 21.6091 5.5895" stroke="#2B292D" stroke-width="13" stroke-linecap="round" stroke-miterlimit="8" fill="none" fill-rule="evenodd" transform="matrix(1 0 0 -1 610.5 123.09)"/><path d="M610.5 122.5 624.788 140.427" stroke="#2B292D" stroke-width="13" stroke-linecap="round" stroke-miterlimit="8" fill="none" fill-rule="evenodd"/><path d="M0 0 1.39003 23.1135" stroke="#2B292D" stroke-width="13" stroke-linecap="round" stroke-miterlimit="8" fill="none" fill-rule="evenodd" transform="matrix(1 0 0 -1 623.5 164.614)"/><path d="M0 0 20.8685 8.41795" stroke="#2B292D" stroke-width="13" stroke-linecap="round" stroke-miterlimit="8" fill="none" fill-rule="evenodd" transform="matrix(1 0 0 -1 623.5 164.918)"/><path d="M644.5 96.5001 656.657 116.705" stroke="#2B292D" stroke-width="13" stroke-linecap="round" stroke-miterlimit="8" fill="none" fill-rule="evenodd"/><path d="M678.109 123.09 656.5 117.5" stroke="#2B292D" stroke-width="13" stroke-linecap="round" stroke-miterlimit="8" fill="none" fill-rule="evenodd"/><path d="M0 0 14.2875 17.9272" stroke="#2B292D" stroke-width="13" stroke-linecap="round" stroke-miterlimit="8" fill="none" fill-rule="evenodd" transform="matrix(-1 -8.74228e-08 -8.74228e-08 1 677.788 122.5)"/><path d="M664.89 164.614 663.5 141.5" stroke="#2B292D" stroke-width="13" stroke-linecap="round" stroke-miterlimit="8" fill="none" fill-rule="evenodd"/><path d="M665.461 164.918 645.5 156.5" stroke="#2B292D" stroke-width="13" stroke-linecap="round" stroke-miterlimit="8" fill="none" fill-rule="evenodd"/></g></svg>