<svg width="758" height="621" xmlns="http://www.w3.org/2000/svg" xmlns:xlink="http://www.w3.org/1999/xlink" overflow="hidden"><defs><clipPath id="clip0"><path d="M261 50 1019 50 1019 671 261 671Z" fill-rule="evenodd" clip-rule="evenodd"/></clipPath></defs><g clip-path="url(#clip0)" transform="translate(-261 -50)"><path d="M269.5 109.745C269.5 80.8911 292.891 57.5001 321.745 57.5001L959.255 57.5001C988.109 57.5001 1011.5 80.8911 1011.5 109.745L1011.5 187.255C1011.5 216.109 988.109 239.5 959.255 239.5L321.745 239.5C292.891 239.5 269.5 216.109 269.5 187.255Z" stroke="#2B292D" stroke-width="13" stroke-linecap="round" stroke-linejoin="round" stroke-miterlimit="10" fill="none" fill-rule="evenodd"/><path d="M351.5 110.167C351.5 109.246 352.246 108.5 353.167 108.5L759.833 108.5C760.754 108.5 761.5 109.246 761.5 110.167L761.5 116.833C761.5 117.754 760.754 118.5 759.833 118.5L353.167 118.5C352.246 118.5 351.5 117.754 351.5 116.833Z" stroke="#A6E9A6" stroke-width="13" stroke-linecap="round" stroke-linejoin="round" stroke-miterlimit="10" fill="#A6E9A6" fill-rule="evenodd"/><path d="M351.5 184.167C351.5 183.246 352.246 182.5 353.167 182.5L759.833 182.5C760.754 182.5 761.5 183.246 761.5 184.167L761.5 190.833C761.5 191.754 760.754 192.5 759.833 192.5L353.167 192.5C352.246 192.5 351.5 191.754 351.5 190.833Z" stroke="#A6E9A6" stroke-width="13" stroke-linecap="round" stroke-linejoin="round" stroke-miterlimit="10" fill="#A6E9A6" fill-rule="evenodd"/><path d="M362.5 105.5 764.532 105.5" stroke="#2B292D" stroke-width="13" stroke-linecap="round" stroke-miterlimit="8" fill="none" fill-rule="evenodd"/><path d="M361.5 177.5 614.494 177.5" stroke="#2B292D" stroke-width="13" stroke-linecap="round" stroke-miterlimit="8" fill="none" fill-rule="evenodd"/><path d="M637.5 177.5 657.423 177.5" stroke="#2B292D" stroke-width="13" stroke-linecap="round" stroke-miterlimit="8" fill="none" fill-rule="evenodd"/><path d="M681.5 177.5 765.023 177.5" stroke="#2B292D" stroke-width="13" stroke-linecap="round" stroke-miterlimit="8" fill="none" fill-rule="evenodd"/><path d="M269.5 321.745C269.5 292.891 292.891 269.5 321.745 269.5L959.255 269.5C988.109 269.5 1011.5 292.891 1011.5 321.745L1011.5 399.255C1011.5 428.109 988.109 451.5 959.255 451.5L321.745 451.5C292.891 451.5 269.5 428.109 269.5 399.255Z" stroke="#2B292D" stroke-width="13" stroke-linecap="round" stroke-linejoin="round" stroke-miterlimit="10" fill="none" fill-rule="evenodd"/><path d="M351.5 322.167C351.5 321.246 352.246 320.5 353.167 320.5L759.833 320.5C760.754 320.5 761.5 321.246 761.5 322.167L761.5 328.833C761.5 329.754 760.754 330.5 759.833 330.5L353.167 330.5C352.246 330.5 351.5 329.754 351.5 328.833Z" stroke="#A6E9A6" stroke-width="13" stroke-linecap="round" stroke-linejoin="round" stroke-miterlimit="10" fill="#A6E9A6" fill-rule="evenodd"/><path d="M351.5 396.167C351.5 395.246 352.246 394.5 353.167 394.5L759.833 394.5C760.754 394.5 761.5 395.246 761.5 396.167L761.5 402.833C761.5 403.754 760.754 404.5 759.833 404.5L353.167 404.5C352.246 404.5 351.5 403.754 351.5 402.833Z" stroke="#A6E9A6" stroke-width="13" stroke-linecap="round" stroke-linejoin="round" stroke-miterlimit="10" fill="#A6E9A6" fill-rule="evenodd"/><path d="M362.5 317.5 764.532 317.5" stroke="#2B292D" stroke-width="13" stroke-linecap="round" stroke-miterlimit="8" fill="none" fill-rule="evenodd"/><path d="M361.5 389.5 614.494 389.5" stroke="#2B292D" stroke-width="13" stroke-linecap="round" stroke-miterlimit="8" fill="none" fill-rule="evenodd"/><path d="M637.5 389.5 657.423 389.5" stroke="#2B292D" stroke-width="13" stroke-linecap="round" stroke-miterlimit="8" fill="none" fill-rule="evenodd"/><path d="M681.5 389.5 765.023 389.5" stroke="#2B292D" stroke-width="13" stroke-linecap="round" stroke-miterlimit="8" fill="none" fill-rule="evenodd"/><path d="M269.5 533.745C269.5 504.891 292.891 481.5 321.745 481.5L959.255 481.5C988.109 481.5 1011.5 504.891 1011.5 533.745L1011.5 611.255C1011.5 640.109 988.109 663.5 959.255 663.5L321.745 663.5C292.891 663.5 269.5 640.109 269.5 611.255Z" stroke="#2B292D" stroke-width="13" stroke-linecap="round" stroke-linejoin="round" stroke-miterlimit="10" fill="none" fill-rule="evenodd"/><path d="M351.5 534.167C351.5 533.246 352.246 532.5 353.167 532.5L759.833 532.5C760.754 532.5 761.5 533.246 761.5 534.167L761.5 540.833C761.5 541.754 760.754 542.5 759.833 542.5L353.167 542.5C352.246 542.5 351.5 541.754 351.5 540.833Z" stroke="#A6E9A6" stroke-width="13" stroke-linecap="round" stroke-linejoin="round" stroke-miterlimit="10" fill="#A6E9A6" fill-rule="evenodd"/><path d="M351.5 608.167C351.5 607.246 352.246 606.5 353.167 606.5L759.833 606.5C760.754 606.5 761.5 607.246 761.5 608.167L761.5 614.833C761.5 615.754 760.754 616.5 759.833 616.5L353.167 616.5C352.246 616.5 351.5 615.754 351.5 614.833Z" stroke="#A6E9A6" stroke-width="13" stroke-linecap="round" stroke-linejoin="round" stroke-miterlimit="10" fill="#A6E9A6" fill-rule="evenodd"/><path d="M362.5 529.5 764.532 529.5" stroke="#2B292D" stroke-width="13" stroke-linecap="round" stroke-miterlimit="8" fill="none" fill-rule="evenodd"/><path d="M361.5 601.5 614.494 601.5" stroke="#2B292D" stroke-width="13" stroke-linecap="round" stroke-miterlimit="8" fill="none" fill-rule="evenodd"/><path d="M637.5 601.5 657.423 601.5" stroke="#2B292D" stroke-width="13" stroke-linecap="round" stroke-miterlimit="8" fill="none" fill-rule="evenodd"/><path d="M681.5 601.5 765.023 601.5" stroke="#2B292D" stroke-width="13" stroke-linecap="round" stroke-miterlimit="8" fill="none" fill-rule="evenodd"/><path d="M817 156C817 116.235 849.235 84 889 84 928.764 84 961 116.235 961 156 961 195.764 928.764 228 889 228 849.235 228 817 195.764 817 156Z" fill="#A6E9A6" fill-rule="evenodd"/><path d="M895.5 74.5001C917.302 74.5001 937.93 84.3104 951.597 101.179" stroke="#2B292D" stroke-width="13" stroke-linecap="round" stroke-miterlimit="8" fill="none" fill-rule="evenodd"/><path d="M960.02 114.266C961.418 117.07 962.63 119.962 963.647 122.924" stroke="#2B292D" stroke-width="13" stroke-linecap="round" stroke-miterlimit="8" fill="none" fill-rule="evenodd"/><path d="M967.052 138.032C971.483 177.275 943.04 212.654 903.524 217.055 864.007 221.455 828.38 193.21 823.948 153.968 819.517 114.725 847.96 79.3458 887.476 74.9453 891.235 74.5268 895.02 74.4029 898.798 74.575" stroke="#2B292D" stroke-width="13" stroke-linecap="round" stroke-miterlimit="8" fill="none" fill-rule="evenodd"/><path d="M0 0 10.9373 18.1785" stroke="#2B292D" stroke-width="13" stroke-linecap="round" stroke-miterlimit="8" fill="none" fill-rule="evenodd" transform="matrix(-1 -8.74228e-08 -8.74228e-08 1 895.437 115.5)"/><path d="M0 0 19.4414 5.02877" stroke="#2B292D" stroke-width="13" stroke-linecap="round" stroke-miterlimit="8" fill="none" fill-rule="evenodd" transform="matrix(1 0 0 -1 864.5 138.529)"/><path d="M864.5 138.5 877.354 154.629" stroke="#2B292D" stroke-width="13" stroke-linecap="round" stroke-miterlimit="8" fill="none" fill-rule="evenodd"/><path d="M0 0 1.2506 20.795" stroke="#2B292D" stroke-width="13" stroke-linecap="round" stroke-miterlimit="8" fill="none" fill-rule="evenodd" transform="matrix(1 0 0 -1 876.5 176.295)"/><path d="M0 0 18.7751 7.57344" stroke="#2B292D" stroke-width="13" stroke-linecap="round" stroke-miterlimit="8" fill="none" fill-rule="evenodd" transform="matrix(1 0 0 -1 876.5 176.073)"/><path d="M895.5 115.5 906.437 133.679" stroke="#2B292D" stroke-width="13" stroke-linecap="round" stroke-miterlimit="8" fill="none" fill-rule="evenodd"/><path d="M925.941 138.529 906.5 133.5" stroke="#2B292D" stroke-width="13" stroke-linecap="round" stroke-miterlimit="8" fill="none" fill-rule="evenodd"/><path d="M0 0 12.8542 16.1289" stroke="#2B292D" stroke-width="13" stroke-linecap="round" stroke-miterlimit="8" fill="none" fill-rule="evenodd" transform="matrix(-1 -8.74228e-08 -8.74228e-08 1 925.354 138.5)"/><path d="M913.751 176.295 912.5 155.5" stroke="#2B292D" stroke-width="13" stroke-linecap="round" stroke-miterlimit="8" fill="none" fill-rule="evenodd"/><path d="M914.459 176.073 896.5 168.5" stroke="#2B292D" stroke-width="13" stroke-linecap="round" stroke-miterlimit="8" fill="none" fill-rule="evenodd"/><path d="M821 365C821 325.236 853.235 293 893 293 932.764 293 965 325.236 965 365 965 404.764 932.764 437 893 437 853.235 437 821 404.764 821 365Z" fill="#A6E9A6" fill-rule="evenodd"/><path d="M899.5 283.5C921.302 283.5 941.93 293.31 955.597 310.179" stroke="#2B292D" stroke-width="13" stroke-linecap="round" stroke-miterlimit="8" fill="none" fill-rule="evenodd"/><path d="M964.02 323.266C965.418 326.07 966.63 328.962 967.647 331.924" stroke="#2B292D" stroke-width="13" stroke-linecap="round" stroke-miterlimit="8" fill="none" fill-rule="evenodd"/><path d="M970.052 347.032C974.483 386.275 946.04 421.654 906.524 426.055 867.007 430.455 831.38 402.21 826.948 362.968 822.517 323.725 850.96 288.346 890.476 283.945 894.235 283.527 898.02 283.403 901.798 283.575" stroke="#2B292D" stroke-width="13" stroke-linecap="round" stroke-miterlimit="8" fill="none" fill-rule="evenodd"/><path d="M0 0 10.9373 18.1785" stroke="#2B292D" stroke-width="13" stroke-linecap="round" stroke-miterlimit="8" fill="none" fill-rule="evenodd" transform="matrix(-1 -8.74228e-08 -8.74228e-08 1 898.437 324.5)"/><path d="M0 0 19.4414 5.02877" stroke="#2B292D" stroke-width="13" stroke-linecap="round" stroke-miterlimit="8" fill="none" fill-rule="evenodd" transform="matrix(1 0 0 -1 868.5 347.529)"/><path d="M868.5 347.5 881.354 363.629" stroke="#2B292D" stroke-width="13" stroke-linecap="round" stroke-miterlimit="8" fill="none" fill-rule="evenodd"/><path d="M0 0 1.2506 20.795" stroke="#2B292D" stroke-width="13" stroke-linecap="round" stroke-miterlimit="8" fill="none" fill-rule="evenodd" transform="matrix(1 0 0 -1 879.5 385.295)"/><path d="M0 0 18.7751 7.57344" stroke="#2B292D" stroke-width="13" stroke-linecap="round" stroke-miterlimit="8" fill="none" fill-rule="evenodd" transform="matrix(1 0 0 -1 879.5 385.073)"/><path d="M898.5 324.5 909.437 342.679" stroke="#2B292D" stroke-width="13" stroke-linecap="round" stroke-miterlimit="8" fill="none" fill-rule="evenodd"/><path d="M928.941 347.529 909.5 342.5" stroke="#2B292D" stroke-width="13" stroke-linecap="round" stroke-miterlimit="8" fill="none" fill-rule="evenodd"/><path d="M0 0 12.8542 16.1289" stroke="#2B292D" stroke-width="13" stroke-linecap="round" stroke-miterlimit="8" fill="none" fill-rule="evenodd" transform="matrix(-1 -8.74228e-08 -8.74228e-08 1 929.354 347.5)"/><path d="M917.751 385.295 916.5 364.5" stroke="#2B292D" stroke-width="13" stroke-linecap="round" stroke-miterlimit="8" fill="none" fill-rule="evenodd"/><path d="M917.459 385.073 899.5 377.5" stroke="#2B292D" stroke-width="13" stroke-linecap="round" stroke-miterlimit="8" fill="none" fill-rule="evenodd"/><path d="M824 577C824 537.235 856.235 505 896 505 935.764 505 968 537.235 968 577 968 616.764 935.764 649 896 649 856.235 649 824 616.764 824 577Z" fill="#A6E9A6" fill-rule="evenodd"/><path d="M902.5 495.5C924.302 495.5 944.93 505.31 958.597 522.179" stroke="#2B292D" stroke-width="13" stroke-linecap="round" stroke-miterlimit="8" fill="none" fill-rule="evenodd"/><path d="M967.02 535.266C968.418 538.07 969.63 540.962 970.647 543.924" stroke="#2B292D" stroke-width="13" stroke-linecap="round" stroke-miterlimit="8" fill="none" fill-rule="evenodd"/><path d="M974.052 559.032C978.483 598.275 950.04 633.654 910.524 638.055 871.007 642.455 835.38 614.21 830.948 574.968 826.517 535.725 854.96 500.346 894.476 495.945 898.235 495.527 902.02 495.403 905.798 495.575" stroke="#2B292D" stroke-width="13" stroke-linecap="round" stroke-miterlimit="8" fill="none" fill-rule="evenodd"/><path d="M0 0 10.9373 18.1785" stroke="#2B292D" stroke-width="13" stroke-linecap="round" stroke-miterlimit="8" fill="none" fill-rule="evenodd" transform="matrix(-1 -8.74228e-08 -8.74228e-08 1 902.437 536.5)"/><path d="M0 0 19.4414 5.02877" stroke="#2B292D" stroke-width="13" stroke-linecap="round" stroke-miterlimit="8" fill="none" fill-rule="evenodd" transform="matrix(1 0 0 -1 871.5 559.529)"/><path d="M871.5 559.5 884.354 575.629" stroke="#2B292D" stroke-width="13" stroke-linecap="round" stroke-miterlimit="8" fill="none" fill-rule="evenodd"/><path d="M0 0 1.2506 20.795" stroke="#2B292D" stroke-width="13" stroke-linecap="round" stroke-miterlimit="8" fill="none" fill-rule="evenodd" transform="matrix(1 0 0 -1 883.5 597.295)"/><path d="M0 0 18.7751 7.57344" stroke="#2B292D" stroke-width="13" stroke-linecap="round" stroke-miterlimit="8" fill="none" fill-rule="evenodd" transform="matrix(1 0 0 -1 883.5 597.073)"/><path d="M902.5 536.5 913.437 554.679" stroke="#2B292D" stroke-width="13" stroke-linecap="round" stroke-miterlimit="8" fill="none" fill-rule="evenodd"/><path d="M932.941 559.529 913.5 554.5" stroke="#2B292D" stroke-width="13" stroke-linecap="round" stroke-miterlimit="8" fill="none" fill-rule="evenodd"/><path d="M0 0 12.8542 16.1289" stroke="#2B292D" stroke-width="13" stroke-linecap="round" stroke-miterlimit="8" fill="none" fill-rule="evenodd" transform="matrix(-1 -8.74228e-08 -8.74228e-08 1 932.354 559.5)"/><path d="M920.751 597.295 919.5 576.5" stroke="#2B292D" stroke-width="13" stroke-linecap="round" stroke-miterlimit="8" fill="none" fill-rule="evenodd"/><path d="M921.459 597.073 903.5 589.5" stroke="#2B292D" stroke-width="13" stroke-linecap="round" stroke-miterlimit="8" fill="none" fill-rule="evenodd"/></g></svg>