<svg width="259" height="259" xmlns="http://www.w3.org/2000/svg" xmlns:xlink="http://www.w3.org/1999/xlink" overflow="hidden"><defs><clipPath id="clip0"><path d="M65 46 324 46 324 305 65 305Z" fill-rule="evenodd" clip-rule="evenodd"/></clipPath></defs><g clip-path="url(#clip0)" transform="translate(-65 -46)"><path d="M119.029 103 246.971 103C253.614 103 259 108.362 259 114.977L259 287.023C259 293.638 253.614 299 246.971 299L157.626 299 107 278.026 107 114.977C107 108.362 112.386 103 119.029 103Z" fill="#A6E9A6" fill-rule="evenodd"/><path d="M0 0 0.815118 24.3219" stroke="#2B292D" stroke-width="13" stroke-linecap="round" stroke-miterlimit="8" fill="none" fill-rule="evenodd" transform="matrix(1 0 0 -1 193.5 100.822)"/><path d="M183.5 65.5001C183.5 59.4249 188.425 54.5001 194.5 54.5001 200.575 54.5001 205.5 59.4249 205.5 65.5001 205.5 71.5752 200.575 76.5001 194.5 76.5001 188.425 76.5001 183.5 71.5752 183.5 65.5001Z" stroke="#2B292D" stroke-width="13" stroke-linecap="round" stroke-miterlimit="8" fill="none" fill-rule="evenodd"/><path d="M130.529 89.5001 258.471 89.5001C265.114 89.5001 270.5 94.8624 270.5 101.477L270.5 273.523C270.5 280.138 265.114 285.5 258.471 285.5L169.126 285.5 118.5 264.526 118.5 101.477C118.5 94.8624 123.886 89.5001 130.529 89.5001Z" stroke="#2B292D" stroke-width="13" stroke-linecap="round" stroke-linejoin="round" stroke-miterlimit="10" fill="none" fill-rule="evenodd"/><path d="M121.849 264.263 158.511 246.164 171.081 285.07Z" stroke="#2B292D" stroke-width="13.3333" stroke-linecap="round" stroke-linejoin="round" stroke-miterlimit="10" fill="none" fill-rule="evenodd"/><path d="M149.5 130.5 239.439 130.5" stroke="#2B292D" stroke-width="13" stroke-linecap="round" stroke-miterlimit="8" fill="none" fill-rule="evenodd"/><path d="M149.5 149.5 205.388 149.5" stroke="#2B292D" stroke-width="13" stroke-linecap="round" stroke-miterlimit="8" fill="none" fill-rule="evenodd"/><path d="M231.5 149.5 239.845 149.5" stroke="#2B292D" stroke-width="13" stroke-linecap="round" stroke-miterlimit="8" fill="none" fill-rule="evenodd"/><path d="M194.5 197.893C194.5 192.153 199.153 187.5 204.893 187.5L229.107 187.5C234.847 187.5 239.5 192.153 239.5 197.893L239.5 222.107C239.5 227.847 234.847 232.5 229.107 232.5L204.893 232.5C199.153 232.5 194.5 227.847 194.5 222.107Z" stroke="#2B292D" stroke-width="13" stroke-linecap="round" stroke-linejoin="round" stroke-miterlimit="10" fill="none" fill-rule="evenodd"/></g></svg>