<svg width="819" height="600" xmlns="http://www.w3.org/2000/svg" xmlns:xlink="http://www.w3.org/1999/xlink" overflow="hidden"><defs><clipPath id="clip0"><path d="M266 93 1085 93 1085 693 266 693Z" fill-rule="evenodd" clip-rule="evenodd"/></clipPath></defs><g clip-path="url(#clip0)" transform="translate(-266 -93)"><path d="M682 571 752 450 822 571Z" fill="#A6E9A6" fill-rule="evenodd"/><path d="M748 571 858.5 381 969 571Z" fill="#A6E9A6" fill-rule="evenodd"/><path d="M657 352C657 320.52 682.296 295 713.5 295 744.704 295 770 320.52 770 352 770 383.48 744.704 409 713.5 409 682.296 409 657 383.48 657 352Z" fill="#A6E9A6" fill-rule="evenodd"/><path d="M722.674 329.959C700.367 329.959 682.284 347.989 682.284 370.231L682.284 531.316C682.284 553.558 700.367 571.589 722.674 571.589L884.228 571.589C906.535 571.589 924.618 553.558 924.618 531.316L924.618 370.231C924.618 347.989 906.535 329.959 884.228 329.959ZM360.087 101.5 920.913 101.5C968.734 101.5 1007.5 140.154 1007.5 187.835L1007.5 533.165C1007.5 580.846 968.734 619.5 920.913 619.5L360.087 619.5C312.266 619.5 273.5 580.846 273.5 533.165L273.5 187.835C273.5 140.154 312.266 101.5 360.087 101.5Z" stroke="#2B292D" stroke-width="13" stroke-linecap="round" stroke-linejoin="round" stroke-miterlimit="10" fill="#FFFFFF" fill-rule="evenodd"/><path d="M345.5 193.167C345.5 192.246 346.246 191.5 347.167 191.5L901.833 191.5C902.754 191.5 903.5 192.246 903.5 193.167L903.5 199.833C903.5 200.754 902.754 201.5 901.833 201.5L347.167 201.5C346.246 201.5 345.5 200.754 345.5 199.833Z" stroke="#A6E9A6" stroke-width="13" stroke-linecap="round" stroke-linejoin="round" stroke-miterlimit="10" fill="#A6E9A6" fill-rule="evenodd"/><path d="M345.5 267.167C345.5 266.246 346.246 265.5 347.167 265.5L901.833 265.5C902.754 265.5 903.5 266.246 903.5 267.167L903.5 273.833C903.5 274.754 902.754 275.5 901.833 275.5L347.167 275.5C346.246 275.5 345.5 274.754 345.5 273.833Z" stroke="#A6E9A6" stroke-width="13" stroke-linecap="round" stroke-linejoin="round" stroke-miterlimit="10" fill="#A6E9A6" fill-rule="evenodd"/><path d="M360.5 188.5 907.978 188.5" stroke="#2B292D" stroke-width="13" stroke-linecap="round" stroke-miterlimit="8" fill="none" fill-rule="evenodd"/><path d="M358.5 260.5 703.022 260.5" stroke="#2B292D" stroke-width="13" stroke-linecap="round" stroke-miterlimit="8" fill="none" fill-rule="evenodd"/><path d="M735.5 259.5 762.631 259.5" stroke="#2B292D" stroke-width="13" stroke-linecap="round" stroke-miterlimit="8" fill="none" fill-rule="evenodd"/><path d="M350.5 408.333C350.5 407.321 351.321 406.5 352.333 406.5L582.667 406.5C583.679 406.5 584.5 407.321 584.5 408.333L584.5 415.667C584.5 416.679 583.679 417.5 582.667 417.5L352.333 417.5C351.321 417.5 350.5 416.679 350.5 415.667Z" stroke="#A6E9A6" stroke-width="13" stroke-linecap="round" stroke-linejoin="round" stroke-miterlimit="10" fill="#A6E9A6" fill-rule="evenodd"/><path d="M794.5 260.5 908.239 260.5" stroke="#2B292D" stroke-width="13" stroke-linecap="round" stroke-miterlimit="8" fill="none" fill-rule="evenodd"/><path d="M350.5 476.167C350.5 475.246 351.246 474.5 352.167 474.5L582.833 474.5C583.754 474.5 584.5 475.246 584.5 476.167L584.5 482.833C584.5 483.754 583.754 484.5 582.833 484.5L352.167 484.5C351.246 484.5 350.5 483.754 350.5 482.833Z" stroke="#A6E9A6" stroke-width="13" stroke-linecap="round" stroke-linejoin="round" stroke-miterlimit="10" fill="#A6E9A6" fill-rule="evenodd"/><path d="M358.5 403.5 584.628 403.5" stroke="#2B292D" stroke-width="13" stroke-linecap="round" stroke-miterlimit="8" fill="none" fill-rule="evenodd"/><path d="M358.5 470.5 584.628 470.5" stroke="#2B292D" stroke-width="13" stroke-linecap="round" stroke-miterlimit="8" fill="none" fill-rule="evenodd"/><path d="M916 598.5C916 552.384 953.384 515 999.5 515 1045.62 515 1083 552.384 1083 598.5 1083 644.616 1045.62 682 999.5 682 953.384 682 916 644.616 916 598.5Z" fill="#FFFFFF" fill-rule="evenodd"/><path d="M893 608.5C893 562.384 930.384 525 976.5 525 1022.62 525 1060 562.384 1060 608.5 1060 654.616 1022.62 692 976.5 692 930.384 692 893 654.616 893 608.5Z" fill="#A6E9A6" fill-rule="evenodd"/><path d="M910.5 599C910.5 552.884 947.884 515.5 994 515.5 1040.12 515.5 1077.5 552.884 1077.5 599 1077.5 645.116 1040.12 682.5 994 682.5 947.884 682.5 910.5 645.116 910.5 599Z" stroke="#2B292D" stroke-width="13" stroke-linecap="round" stroke-linejoin="round" stroke-miterlimit="10" fill="none" fill-rule="evenodd"/><path d="M950.5 598.5 1038 598.5" stroke="#2B292D" stroke-width="13" stroke-linecap="round" stroke-miterlimit="8" fill="none" fill-rule="evenodd"/><path d="M994.5 555.5 994.5 643.004" stroke="#2B292D" stroke-width="13" stroke-linecap="round" stroke-miterlimit="8" fill="none" fill-rule="evenodd"/></g></svg>