<svg width="263" height="258" xmlns="http://www.w3.org/2000/svg" xmlns:xlink="http://www.w3.org/1999/xlink" overflow="hidden"><defs><clipPath id="clip0"><path d="M913 44 1176 44 1176 302 913 302Z" fill-rule="evenodd" clip-rule="evenodd"/></clipPath></defs><g clip-path="url(#clip0)" transform="translate(-913 -44)"><path d="M1076 132C1076 108.804 1094.8 90 1118 90 1141.2 90 1160 108.804 1160 132 1160 155.196 1141.2 174 1118 174 1094.8 174 1076 155.196 1076 132Z" fill="#A6E9A6" fill-rule="evenodd"/><path d="M916 232C916 208.804 934.804 190 958 190 981.196 190 1000 208.804 1000 232 1000 255.196 981.196 274 958 274 934.804 274 916 255.196 916 232Z" fill="#A6E9A6" fill-rule="evenodd"/><path d="M1102.01 119.237C1102.14 116.203 1104.48 113.861 1107.24 114.006 1109.9 114.147 1112 116.565 1112 119.5" stroke="#2B292D" stroke-width="8" stroke-linecap="round" stroke-miterlimit="8" fill="none" fill-rule="evenodd"/><path d="M1133.01 119.211C1133.17 116.177 1135.76 113.848 1138.79 114.008 1141.71 114.161 1144 116.575 1144 119.5" stroke="#2B292D" stroke-width="8" stroke-linecap="round" stroke-miterlimit="8" fill="none" fill-rule="evenodd"/><path d="M1111.1 132 1134.9 132 1135 132.583C1135 140.546 1129.63 147 1123 147 1116.37 147 1111 140.546 1111 132.583Z" stroke="#2B292D" stroke-width="8" stroke-linecap="round" stroke-linejoin="round" stroke-miterlimit="10" fill="none" fill-rule="evenodd"/><path d="M920.507 123.734C920.904 101.969 937.865 84.1143 959.581 82.6016" stroke="#2B292D" stroke-width="13" stroke-linecap="round" stroke-miterlimit="8" fill="none" fill-rule="evenodd"/><path d="M962.541 166.5C939.345 166.523 920.523 147.737 920.5 124.541 920.496 120.402 921.104 116.286 922.304 112.325" stroke="#2B292D" stroke-width="13" stroke-linecap="round" stroke-miterlimit="8" fill="none" fill-rule="evenodd"/><path d="M1122.65 82.0015C1145.84 81.8079 1164.81 100.454 1165 123.65 1165.19 146.845 1146.55 165.805 1123.35 165.999 1123.11 166.001 1122.87 166 1122.62 165.998" stroke="#2B292D" stroke-width="8" stroke-linecap="round" stroke-miterlimit="8" fill="none" fill-rule="evenodd"/><path d="M959.5 82.5001 980.164 82.5002" stroke="#2B292D" stroke-width="13" stroke-linecap="round" stroke-miterlimit="8" fill="none" fill-rule="evenodd"/><path d="M1123.02 83.3618 1020.5 82.5001" stroke="#2B292D" stroke-width="13" stroke-linecap="round" stroke-miterlimit="8" fill="none" fill-rule="evenodd"/><path d="M0 0 5.55527 0.000104987" stroke="#2B292D" stroke-width="13" stroke-linecap="round" stroke-miterlimit="8" fill="none" fill-rule="evenodd" transform="matrix(-1 -8.74228e-08 -8.74228e-08 1 1003.06 82.5001)"/><path d="M0 0 160.49 0.000104987" stroke="#2B292D" stroke-width="13" stroke-linecap="round" stroke-miterlimit="8" fill="none" fill-rule="evenodd" transform="matrix(-1 -8.74228e-08 -8.74228e-08 1 1122.99 166.5)"/><path d="M10.8726 13.8027C18.1538 5.76483 28.2621 0.855178 39.0813 0.101497" stroke="#2B292D" stroke-width="8" stroke-linecap="round" stroke-miterlimit="8" fill="none" fill-rule="evenodd" transform="matrix(-1 -8.74228e-08 -8.74228e-08 1 1165 183)"/><path d="M42.0407 84C19.9587 84.0214 1.63129 66.9396 0.101009 44.9106" stroke="#2B292D" stroke-width="8" stroke-linecap="round" stroke-miterlimit="8" fill="none" fill-rule="evenodd" transform="matrix(-1 -8.74228e-08 -8.74228e-08 1 1165 183)"/><path d="M41.6496 0.00146982C64.8448-0.192051 83.805 18.4545 83.9986 41.6496 84.1921 64.8448 65.5456 83.805 42.3504 83.9985 42.1083 84.0006 41.8661 84.0005 41.624 83.9983" stroke="#2B292D" stroke-width="8" stroke-linecap="round" stroke-miterlimit="8" fill="none" fill-rule="evenodd" transform="matrix(-1 -8.74228e-08 -8.74228e-08 1 1004 183)"/><path d="M0 0 20.1752 0.000104987" stroke="#2B292D" stroke-width="13" stroke-linecap="round" stroke-miterlimit="8" fill="none" fill-rule="evenodd" transform="matrix(-1 -8.74228e-08 -8.74228e-08 1 1126.68 183.5)"/><path d="M963 183 1052.33 183" stroke="#2B292D" stroke-width="8" stroke-linecap="round" stroke-miterlimit="8" fill="none" fill-rule="evenodd"/><path d="M1083 183 1088.56 183" stroke="#2B292D" stroke-width="8" stroke-linecap="round" stroke-miterlimit="8" fill="none" fill-rule="evenodd"/><path d="M963 267 1123.49 267" stroke="#2B292D" stroke-width="8" stroke-linecap="round" stroke-miterlimit="8" fill="none" fill-rule="evenodd"/><path d="M0.420827 47.9305C-2.8545 24.967 13.106 3.69616 36.0695 0.420831 37.0693 0.278232 38.0739 0.171739 39.0813 0.101559" stroke="#2B292D" stroke-width="13" stroke-linecap="round" stroke-miterlimit="8" fill="none" fill-rule="evenodd" transform="matrix(-1 -8.74228e-08 -8.74228e-08 1 1165.5 183.5)"/><path d="M42.0407 84C19.9587 84.0214 1.63129 66.9396 0.101009 44.9106" stroke="#2B292D" stroke-width="13" stroke-linecap="round" stroke-miterlimit="8" fill="none" fill-rule="evenodd" transform="matrix(-1 -8.74228e-08 -8.74228e-08 1 1165.5 183.5)"/><path d="M0 0 103.728 0.367034" stroke="#2B292D" stroke-width="13" stroke-linecap="round" stroke-miterlimit="8" fill="none" fill-rule="evenodd" transform="matrix(1 0 0 -1 962.5 183.867)"/><path d="M1083.5 183.5 1089.06 183.5" stroke="#2B292D" stroke-width="13" stroke-linecap="round" stroke-miterlimit="8" fill="none" fill-rule="evenodd"/><path d="M963.5 267.5 1123.99 267.5" stroke="#2B292D" stroke-width="13" stroke-linecap="round" stroke-miterlimit="8" fill="none" fill-rule="evenodd"/><path d="M920 225C920 201.804 938.804 183 962 183 985.196 183 1004 201.804 1004 225 1004 248.196 985.196 267 962 267 938.804 267 920 248.196 920 225Z" stroke="#2B292D" stroke-width="8" stroke-linecap="round" stroke-linejoin="round" stroke-miterlimit="10" fill="none" fill-rule="evenodd"/><path d="M949.052 238.805C949.665 234.681 955.513 231.649 962.112 232.032 968.282 232.391 973 235.627 973 239.5" stroke="#2B292D" stroke-width="8" stroke-linecap="round" stroke-miterlimit="8" fill="none" fill-rule="evenodd"/><path d="M0 2.5C-6.36567e-16 1.11929 1.11929 0 2.5 0 3.88071 -6.36567e-16 5 1.11929 5 2.5 5 3.88071 3.88071 5 2.5 5 1.11929 5 -9.5485e-16 3.88071 0 2.5Z" stroke="#2B292D" stroke-width="8" stroke-linecap="round" stroke-linejoin="round" stroke-miterlimit="10" fill="#2B292D" fill-rule="evenodd" transform="matrix(-1 -8.74228e-08 -8.74228e-08 1 980 214)"/><path d="M944 217C944 215.895 944.895 215 946 215 947.105 215 948 215.895 948 217 948 218.105 947.105 219 946 219 944.895 219 944 218.105 944 217Z" stroke="#2B292D" stroke-width="8" stroke-linecap="round" stroke-linejoin="round" stroke-miterlimit="10" fill="#2B292D" fill-rule="evenodd"/><path d="M1080.5 125C1080.5 102.08 1099.3 83.5001 1122.5 83.5001 1145.7 83.5001 1164.5 102.08 1164.5 125 1164.5 147.92 1145.7 166.5 1122.5 166.5 1099.3 166.5 1080.5 147.92 1080.5 125Z" stroke="#2B292D" stroke-width="13" stroke-linecap="round" stroke-linejoin="round" stroke-miterlimit="10" fill="none" fill-rule="evenodd"/><path d="M920.5 225.5C920.5 202.304 939.304 183.5 962.5 183.5 985.696 183.5 1004.5 202.304 1004.5 225.5 1004.5 248.696 985.696 267.5 962.5 267.5 939.304 267.5 920.5 248.696 920.5 225.5Z" stroke="#2B292D" stroke-width="13" stroke-linecap="round" stroke-linejoin="round" stroke-miterlimit="10" fill="none" fill-rule="evenodd"/></g></svg>