<svg width="757" height="595" xmlns="http://www.w3.org/2000/svg" xmlns:xlink="http://www.w3.org/1999/xlink" overflow="hidden"><defs><clipPath id="clip0"><path d="M256 59 1013 59 1013 654 256 654Z" fill-rule="evenodd" clip-rule="evenodd"/></clipPath></defs><g clip-path="url(#clip0)" transform="translate(-256 -59)"><path d="M626.5 231.167C626.5 230.246 627.246 229.5 628.167 229.5L946.833 229.5C947.754 229.5 948.5 230.246 948.5 231.167L948.5 237.833C948.5 238.754 947.754 239.5 946.833 239.5L628.167 239.5C627.246 239.5 626.5 238.754 626.5 237.833Z" stroke="#A6E9A6" stroke-width="13" stroke-linecap="round" stroke-linejoin="round" stroke-miterlimit="10" fill="#A6E9A6" fill-rule="evenodd"/><path d="M0 0 183.673 0.613858" stroke="#2B292D" stroke-width="13" stroke-linecap="round" stroke-miterlimit="8" fill="none" fill-rule="evenodd" transform="matrix(1 0 0 -1 633.5 226.114)"/><path d="M850.5 225.5 866.145 225.5" stroke="#2B292D" stroke-width="13" stroke-linecap="round" stroke-miterlimit="8" fill="none" fill-rule="evenodd"/><path d="M901.5 225.5 948.024 225.5" stroke="#2B292D" stroke-width="13" stroke-linecap="round" stroke-miterlimit="8" fill="none" fill-rule="evenodd"/><path d="M405 250.5C405 219.296 430.296 194 461.5 194 492.704 194 518 219.296 518 250.5 518 281.704 492.704 307 461.5 307 430.296 307 405 281.704 405 250.5Z" fill="#A6E9A6" fill-rule="evenodd"/><path d="M375 361.34C375.095 316.882 413.899 280.912 461.672 281 509.33 281.088 547.933 317.035 548 361.388L461.5 361.5Z" fill="#A6E9A6" fill-rule="evenodd"/><path d="M267.5 126.168C267.5 93.2143 294.214 66.5001 327.168 66.5001L941.832 66.5001C974.786 66.5001 1001.5 93.2143 1001.5 126.168L1001.5 364.832C1001.5 397.786 974.786 424.5 941.832 424.5L327.168 424.5C294.214 424.5 267.5 397.786 267.5 364.832Z" stroke="#2B292D" stroke-width="13" stroke-linecap="round" stroke-linejoin="round" stroke-miterlimit="10" fill="none" fill-rule="evenodd"/><path d="M340.5 164.168C340.5 141.708 358.708 123.5 381.168 123.5L543.833 123.5C566.293 123.5 584.5 141.708 584.5 164.168L584.5 326.833C584.5 349.293 566.293 367.5 543.833 367.5L381.168 367.5C358.708 367.5 340.5 349.293 340.5 326.833Z" stroke="#2B292D" stroke-width="13" stroke-linecap="round" stroke-linejoin="round" stroke-miterlimit="10" fill="none" fill-rule="evenodd"/><path d="M653.5 151C653.5 146.858 656.858 143.5 661 143.5 665.142 143.5 668.5 146.858 668.5 151 668.5 155.142 665.142 158.5 661 158.5 656.858 158.5 653.5 155.142 653.5 151Z" stroke="#A6E9A6" stroke-width="13" stroke-linecap="round" stroke-linejoin="round" stroke-miterlimit="10" fill="#A6E9A6" fill-rule="evenodd"/><path d="M716.5 152C716.5 147.858 719.858 144.5 724 144.5 728.142 144.5 731.5 147.858 731.5 152 731.5 156.142 728.142 159.5 724 159.5 719.858 159.5 716.5 156.142 716.5 152Z" stroke="#A6E9A6" stroke-width="13" stroke-linecap="round" stroke-linejoin="round" stroke-miterlimit="10" fill="#A6E9A6" fill-rule="evenodd"/><path d="M779.5 150.5C779.5 146.634 782.858 143.5 787 143.5 791.142 143.5 794.5 146.634 794.5 150.5 794.5 154.366 791.142 157.5 787 157.5 782.858 157.5 779.5 154.366 779.5 150.5Z" stroke="#A6E9A6" stroke-width="13" stroke-linecap="round" stroke-linejoin="round" stroke-miterlimit="10" fill="#A6E9A6" fill-rule="evenodd"/><path d="M842.5 151C842.5 146.858 845.858 143.5 850 143.5 854.142 143.5 857.5 146.858 857.5 151 857.5 155.142 854.142 158.5 850 158.5 845.858 158.5 842.5 155.142 842.5 151Z" stroke="#A6E9A6" stroke-width="13" stroke-linecap="round" stroke-linejoin="round" stroke-miterlimit="10" fill="#A6E9A6" fill-rule="evenodd"/><path d="M905.5 149C905.5 144.858 908.858 141.5 913 141.5 917.142 141.5 920.5 144.858 920.5 149 920.5 153.142 917.142 156.5 913 156.5 908.858 156.5 905.5 153.142 905.5 149Z" stroke="#A6E9A6" stroke-width="13" stroke-linecap="round" stroke-linejoin="round" stroke-miterlimit="10" fill="#A6E9A6" fill-rule="evenodd"/><path d="M660.5 125.5 668.504 138.802" stroke="#2B292D" stroke-width="13" stroke-linecap="round" stroke-miterlimit="8" fill="none" fill-rule="evenodd"/><path d="M682.727 142.18 668.5 138.5" stroke="#2B292D" stroke-width="13" stroke-linecap="round" stroke-miterlimit="8" fill="none" fill-rule="evenodd"/><path d="M0 0 9.40619 11.8025" stroke="#2B292D" stroke-width="13" stroke-linecap="round" stroke-miterlimit="8" fill="none" fill-rule="evenodd" transform="matrix(-1 -8.74228e-08 -8.74228e-08 1 682.906 142.5)"/><path d="M674.415 169.717 673.5 154.5" stroke="#2B292D" stroke-width="13" stroke-linecap="round" stroke-miterlimit="8" fill="none" fill-rule="evenodd"/><path d="M674.239 170.042 660.5 164.5" stroke="#2B292D" stroke-width="13" stroke-linecap="round" stroke-miterlimit="8" fill="none" fill-rule="evenodd"/><path d="M0 0 8.00346 13.3023" stroke="#2B292D" stroke-width="13" stroke-linecap="round" stroke-miterlimit="8" fill="none" fill-rule="evenodd" transform="matrix(-1 -8.74228e-08 -8.74228e-08 1 660.504 125.5)"/><path d="M0 0 14.2265 3.67989" stroke="#2B292D" stroke-width="13" stroke-linecap="round" stroke-miterlimit="8" fill="none" fill-rule="evenodd" transform="matrix(1 0 0 -1 638.5 142.18)"/><path d="M638.5 142.5 647.906 154.303" stroke="#2B292D" stroke-width="13" stroke-linecap="round" stroke-miterlimit="8" fill="none" fill-rule="evenodd"/><path d="M0 0 0.915171 15.2169" stroke="#2B292D" stroke-width="13" stroke-linecap="round" stroke-miterlimit="8" fill="none" fill-rule="evenodd" transform="matrix(1 0 0 -1 646.5 169.717)"/><path d="M0 0 13.1416 5.54194" stroke="#2B292D" stroke-width="13" stroke-linecap="round" stroke-miterlimit="8" fill="none" fill-rule="evenodd" transform="matrix(1 0 0 -1 646.5 170.042)"/><path d="M723.5 125.5 731.504 138.802" stroke="#2B292D" stroke-width="13" stroke-linecap="round" stroke-miterlimit="8" fill="none" fill-rule="evenodd"/><path d="M745.727 142.18 731.5 138.5" stroke="#2B292D" stroke-width="13" stroke-linecap="round" stroke-miterlimit="8" fill="none" fill-rule="evenodd"/><path d="M0 0 9.40619 11.8025" stroke="#2B292D" stroke-width="13" stroke-linecap="round" stroke-miterlimit="8" fill="none" fill-rule="evenodd" transform="matrix(-1 -8.74228e-08 -8.74228e-08 1 745.906 142.5)"/><path d="M737.415 169.717 736.5 154.5" stroke="#2B292D" stroke-width="13" stroke-linecap="round" stroke-miterlimit="8" fill="none" fill-rule="evenodd"/><path d="M737.239 170.042 723.5 164.5" stroke="#2B292D" stroke-width="13" stroke-linecap="round" stroke-miterlimit="8" fill="none" fill-rule="evenodd"/><path d="M0 0 8.00346 13.3023" stroke="#2B292D" stroke-width="13" stroke-linecap="round" stroke-miterlimit="8" fill="none" fill-rule="evenodd" transform="matrix(-1 -8.74228e-08 -8.74228e-08 1 723.504 125.5)"/><path d="M0 0 14.2265 3.67989" stroke="#2B292D" stroke-width="13" stroke-linecap="round" stroke-miterlimit="8" fill="none" fill-rule="evenodd" transform="matrix(1 0 0 -1 701.5 142.18)"/><path d="M701.5 142.5 710.906 154.303" stroke="#2B292D" stroke-width="13" stroke-linecap="round" stroke-miterlimit="8" fill="none" fill-rule="evenodd"/><path d="M0 0 0.915171 15.2169" stroke="#2B292D" stroke-width="13" stroke-linecap="round" stroke-miterlimit="8" fill="none" fill-rule="evenodd" transform="matrix(1 0 0 -1 710.5 169.717)"/><path d="M0 0 13.1416 5.54194" stroke="#2B292D" stroke-width="13" stroke-linecap="round" stroke-miterlimit="8" fill="none" fill-rule="evenodd" transform="matrix(1 0 0 -1 710.5 170.042)"/><path d="M787.5 125.5 795.504 138.802" stroke="#2B292D" stroke-width="13" stroke-linecap="round" stroke-miterlimit="8" fill="none" fill-rule="evenodd"/><path d="M809.727 142.18 795.5 138.5" stroke="#2B292D" stroke-width="13" stroke-linecap="round" stroke-miterlimit="8" fill="none" fill-rule="evenodd"/><path d="M0 0 9.40619 11.8025" stroke="#2B292D" stroke-width="13" stroke-linecap="round" stroke-miterlimit="8" fill="none" fill-rule="evenodd" transform="matrix(-1 -8.74228e-08 -8.74228e-08 1 808.906 142.5)"/><path d="M800.415 169.717 799.5 154.5" stroke="#2B292D" stroke-width="13" stroke-linecap="round" stroke-miterlimit="8" fill="none" fill-rule="evenodd"/><path d="M801.239 170.042 787.5 164.5" stroke="#2B292D" stroke-width="13" stroke-linecap="round" stroke-miterlimit="8" fill="none" fill-rule="evenodd"/><path d="M0 0 8.00346 13.3023" stroke="#2B292D" stroke-width="13" stroke-linecap="round" stroke-miterlimit="8" fill="none" fill-rule="evenodd" transform="matrix(-1 -8.74228e-08 -8.74228e-08 1 787.504 125.5)"/><path d="M0 0 14.2265 3.67989" stroke="#2B292D" stroke-width="13" stroke-linecap="round" stroke-miterlimit="8" fill="none" fill-rule="evenodd" transform="matrix(1 0 0 -1 764.5 142.18)"/><path d="M764.5 142.5 773.906 154.303" stroke="#2B292D" stroke-width="13" stroke-linecap="round" stroke-miterlimit="8" fill="none" fill-rule="evenodd"/><path d="M0 0 0.915171 15.2169" stroke="#2B292D" stroke-width="13" stroke-linecap="round" stroke-miterlimit="8" fill="none" fill-rule="evenodd" transform="matrix(1 0 0 -1 773.5 169.717)"/><path d="M0 0 13.1416 5.54194" stroke="#2B292D" stroke-width="13" stroke-linecap="round" stroke-miterlimit="8" fill="none" fill-rule="evenodd" transform="matrix(1 0 0 -1 773.5 170.042)"/><path d="M850.5 126.5 858.504 139.802" stroke="#2B292D" stroke-width="13" stroke-linecap="round" stroke-miterlimit="8" fill="none" fill-rule="evenodd"/><path d="M872.727 143.18 858.5 139.5" stroke="#2B292D" stroke-width="13" stroke-linecap="round" stroke-miterlimit="8" fill="none" fill-rule="evenodd"/><path d="M0 0 9.40619 11.8025" stroke="#2B292D" stroke-width="13" stroke-linecap="round" stroke-miterlimit="8" fill="none" fill-rule="evenodd" transform="matrix(-1 -8.74228e-08 -8.74228e-08 1 872.906 143.5)"/><path d="M864.415 170.717 863.5 155.5" stroke="#2B292D" stroke-width="13" stroke-linecap="round" stroke-miterlimit="8" fill="none" fill-rule="evenodd"/><path d="M864.239 171.042 850.5 165.5" stroke="#2B292D" stroke-width="13" stroke-linecap="round" stroke-miterlimit="8" fill="none" fill-rule="evenodd"/><path d="M0 0 8.00346 13.3023" stroke="#2B292D" stroke-width="13" stroke-linecap="round" stroke-miterlimit="8" fill="none" fill-rule="evenodd" transform="matrix(-1 -8.74228e-08 -8.74228e-08 1 850.504 126.5)"/><path d="M0 0 14.2265 3.67989" stroke="#2B292D" stroke-width="13" stroke-linecap="round" stroke-miterlimit="8" fill="none" fill-rule="evenodd" transform="matrix(1 0 0 -1 828.5 143.18)"/><path d="M828.5 143.5 837.906 155.303" stroke="#2B292D" stroke-width="13" stroke-linecap="round" stroke-miterlimit="8" fill="none" fill-rule="evenodd"/><path d="M0 0 0.915171 15.2169" stroke="#2B292D" stroke-width="13" stroke-linecap="round" stroke-miterlimit="8" fill="none" fill-rule="evenodd" transform="matrix(1 0 0 -1 836.5 170.717)"/><path d="M0 0 13.1416 5.54194" stroke="#2B292D" stroke-width="13" stroke-linecap="round" stroke-miterlimit="8" fill="none" fill-rule="evenodd" transform="matrix(1 0 0 -1 836.5 171.042)"/><path d="M913.5 126.5 921.504 139.802" stroke="#2B292D" stroke-width="13" stroke-linecap="round" stroke-miterlimit="8" fill="none" fill-rule="evenodd"/><path d="M935.727 143.18 921.5 139.5" stroke="#2B292D" stroke-width="13" stroke-linecap="round" stroke-miterlimit="8" fill="none" fill-rule="evenodd"/><path d="M0 0 9.40619 11.8025" stroke="#2B292D" stroke-width="13" stroke-linecap="round" stroke-miterlimit="8" fill="none" fill-rule="evenodd" transform="matrix(-1 -8.74228e-08 -8.74228e-08 1 935.906 143.5)"/><path d="M927.415 170.717 926.5 155.5" stroke="#2B292D" stroke-width="13" stroke-linecap="round" stroke-miterlimit="8" fill="none" fill-rule="evenodd"/><path d="M927.239 171.042 913.5 165.5" stroke="#2B292D" stroke-width="13" stroke-linecap="round" stroke-miterlimit="8" fill="none" fill-rule="evenodd"/><path d="M0 0 8.00346 13.3023" stroke="#2B292D" stroke-width="13" stroke-linecap="round" stroke-miterlimit="8" fill="none" fill-rule="evenodd" transform="matrix(-1 -8.74228e-08 -8.74228e-08 1 913.504 126.5)"/><path d="M0 0 14.2265 3.67989" stroke="#2B292D" stroke-width="13" stroke-linecap="round" stroke-miterlimit="8" fill="none" fill-rule="evenodd" transform="matrix(1 0 0 -1 891.5 143.18)"/><path d="M891.5 143.5 900.906 155.303" stroke="#2B292D" stroke-width="13" stroke-linecap="round" stroke-miterlimit="8" fill="none" fill-rule="evenodd"/><path d="M0 0 0.915171 15.2169" stroke="#2B292D" stroke-width="13" stroke-linecap="round" stroke-miterlimit="8" fill="none" fill-rule="evenodd" transform="matrix(1 0 0 -1 899.5 170.717)"/><path d="M0 0 13.1416 5.54194" stroke="#2B292D" stroke-width="13" stroke-linecap="round" stroke-miterlimit="8" fill="none" fill-rule="evenodd" transform="matrix(1 0 0 -1 899.5 171.042)"/><path d="M626.5 293.333C626.5 292.321 627.321 291.5 628.333 291.5L858.667 291.5C859.679 291.5 860.5 292.321 860.5 293.333L860.5 300.667C860.5 301.679 859.679 302.5 858.667 302.5L628.333 302.5C627.321 302.5 626.5 301.679 626.5 300.667Z" stroke="#A6E9A6" stroke-width="13" stroke-linecap="round" stroke-linejoin="round" stroke-miterlimit="10" fill="#A6E9A6" fill-rule="evenodd"/><path d="M626.5 360.333C626.5 359.321 627.321 358.5 628.333 358.5L858.667 358.5C859.679 358.5 860.5 359.321 860.5 360.333L860.5 367.667C860.5 368.679 859.679 369.5 858.667 369.5L628.333 369.5C627.321 369.5 626.5 368.679 626.5 367.667Z" stroke="#A6E9A6" stroke-width="13" stroke-linecap="round" stroke-linejoin="round" stroke-miterlimit="10" fill="#A6E9A6" fill-rule="evenodd"/><path d="M634.5 287.5 860.628 287.5" stroke="#2B292D" stroke-width="13" stroke-linecap="round" stroke-miterlimit="8" fill="none" fill-rule="evenodd"/><path d="M634.5 355.5 860.628 355.5" stroke="#2B292D" stroke-width="13" stroke-linecap="round" stroke-miterlimit="8" fill="none" fill-rule="evenodd"/><path d="M263.5 516.745C263.5 487.891 286.891 464.5 315.745 464.5L954.255 464.5C983.109 464.5 1006.5 487.891 1006.5 516.745L1006.5 594.255C1006.5 623.109 983.109 646.5 954.255 646.5L315.745 646.5C286.891 646.5 263.5 623.109 263.5 594.255Z" stroke="#2B292D" stroke-width="13" stroke-linecap="round" stroke-linejoin="round" stroke-miterlimit="10" fill="none" fill-rule="evenodd"/><path d="M345.5 517.334C345.5 516.321 346.321 515.5 347.333 515.5L753.667 515.5C754.679 515.5 755.5 516.321 755.5 517.334L755.5 524.667C755.5 525.679 754.679 526.5 753.667 526.5L347.333 526.5C346.321 526.5 345.5 525.679 345.5 524.667Z" stroke="#A6E9A6" stroke-width="13" stroke-linecap="round" stroke-linejoin="round" stroke-miterlimit="10" fill="#A6E9A6" fill-rule="evenodd"/><path d="M345.5 591.334C345.5 590.321 346.321 589.5 347.333 589.5L753.667 589.5C754.679 589.5 755.5 590.321 755.5 591.334L755.5 598.667C755.5 599.679 754.679 600.5 753.667 600.5L347.333 600.5C346.321 600.5 345.5 599.679 345.5 598.667Z" stroke="#A6E9A6" stroke-width="13" stroke-linecap="round" stroke-linejoin="round" stroke-miterlimit="10" fill="#A6E9A6" fill-rule="evenodd"/><path d="M357.5 512.5 759.532 512.5" stroke="#2B292D" stroke-width="13" stroke-linecap="round" stroke-miterlimit="8" fill="none" fill-rule="evenodd"/><path d="M355.5 585.5 608.494 585.5" stroke="#2B292D" stroke-width="13" stroke-linecap="round" stroke-miterlimit="8" fill="none" fill-rule="evenodd"/><path d="M631.5 584.5 651.423 584.5" stroke="#2B292D" stroke-width="13" stroke-linecap="round" stroke-miterlimit="8" fill="none" fill-rule="evenodd"/><path d="M675.5 585.5 759.023 585.5" stroke="#2B292D" stroke-width="13" stroke-linecap="round" stroke-miterlimit="8" fill="none" fill-rule="evenodd"/><path d="M910 620 849.698 620C842.133 620 836 613.732 836 606" fill="#A6E9A6" fill-rule="evenodd"/><path d="M877 551.5C877 546.253 881.253 542 886.5 542L915.5 542C920.747 542 925 546.253 925 551.5L925 551.5C925 556.747 920.747 561 915.5 561L886.5 561C881.253 561 877 556.747 877 551.5Z" fill="#A6E9A6" fill-rule="evenodd"/><path d="M877 571C877 566.029 881.029 562 886 562L916 562C920.971 562 925 566.029 925 571L925 571C925 575.971 920.971 580 916 580L886 580C881.029 580 877 575.971 877 571Z" fill="#A6E9A6" fill-rule="evenodd"/><path d="M877 590.5C877 585.253 881.253 581 886.5 581L915.5 581C920.747 581 925 585.253 925 590.5L925 590.5C925 595.747 920.747 600 915.5 600L886.5 600C881.253 600 877 595.747 877 590.5Z" fill="#A6E9A6" fill-rule="evenodd"/><path d="M877 610.5C877 605.253 881.253 601 886.5 601L915.5 601C920.747 601 925 605.253 925 610.5L925 610.5C925 615.747 920.747 620 915.5 620L886.5 620C881.253 620 877 615.747 877 610.5Z" fill="#A6E9A6" fill-rule="evenodd"/><path d="M0 0 41.4785 3.02572" fill="#A6E9A6" fill-rule="evenodd" transform="matrix(-1 -8.74228e-08 -8.74228e-08 1 900.479 542)"/><path d="M836.245 545.261 835.931 515.407C835.861 508.799 841.005 503.387 847.42 503.32L847.42 503.32C853.835 503.252 859.091 508.554 859.161 515.163L859.475 545.017" fill="#A6E9A6" fill-rule="evenodd"/><path d="M836.08 605.269 836 545" fill="#A6E9A6" fill-rule="evenodd"/><path d="M836 542.387C836 539.964 837.964 538 840.387 538L902.613 538C905.036 538 907 539.964 907 542.387L907 604.613C907 607.036 905.036 609 902.613 609L840.387 609C837.964 609 836 607.036 836 604.613Z" fill="#A6E9A6" fill-rule="evenodd"/><path d="M920.5 614.5 859.383 614.5C851.716 614.5 845.5 610.471 845.5 605.5" stroke="#2B292D" stroke-width="13" stroke-linecap="round" stroke-linejoin="round" stroke-miterlimit="10" fill="none" fill-rule="evenodd"/><path d="M886.5 547.5C886.5 542.529 890.529 538.5 895.5 538.5L926.5 538.5C931.471 538.5 935.5 542.529 935.5 547.5L935.5 547.5C935.5 552.471 931.471 556.5 926.5 556.5L895.5 556.5C890.529 556.5 886.5 552.471 886.5 547.5Z" stroke="#2B292D" stroke-width="13" stroke-linecap="round" stroke-linejoin="round" stroke-miterlimit="10" fill="none" fill-rule="evenodd"/><path d="M886.5 567C886.5 561.753 890.753 557.5 896 557.5L926 557.5C931.247 557.5 935.5 561.753 935.5 567L935.5 567C935.5 572.247 931.247 576.5 926 576.5L896 576.5C890.753 576.5 886.5 572.247 886.5 567Z" stroke="#2B292D" stroke-width="13" stroke-linecap="round" stroke-linejoin="round" stroke-miterlimit="10" fill="none" fill-rule="evenodd"/><path d="M886.5 586C886.5 580.753 890.753 576.5 896 576.5L926 576.5C931.247 576.5 935.5 580.753 935.5 586L935.5 586C935.5 591.247 931.247 595.5 926 595.5L896 595.5C890.753 595.5 886.5 591.247 886.5 586Z" stroke="#2B292D" stroke-width="13" stroke-linecap="round" stroke-linejoin="round" stroke-miterlimit="10" fill="none" fill-rule="evenodd"/><path d="M886.5 605.5C886.5 600.529 890.529 596.5 895.5 596.5L926.5 596.5C931.471 596.5 935.5 600.529 935.5 605.5L935.5 605.5C935.5 610.471 931.471 614.5 926.5 614.5L895.5 614.5C890.529 614.5 886.5 610.471 886.5 605.5Z" stroke="#2B292D" stroke-width="13" stroke-linecap="round" stroke-linejoin="round" stroke-miterlimit="10" fill="none" fill-rule="evenodd"/><path d="M926.384 537.744 869.5 537.5" stroke="#2B292D" stroke-width="13" stroke-linecap="round" stroke-miterlimit="8" fill="none" fill-rule="evenodd"/><path d="M844.722 605.542C844.699 594.387 844.907 519.683 844.884 508.528 844.813 501.807 850.05 496.304 856.581 496.235L856.581 496.235C863.111 496.166 868.462 501.559 868.533 508.28 868.473 517.9 868.662 527.397 868.602 537.017" stroke="#2B292D" stroke-width="13.3333" stroke-linecap="round" stroke-linejoin="round" stroke-miterlimit="10" fill="none" fill-rule="evenodd"/></g></svg>