<svg width="1222" height="604" xmlns="http://www.w3.org/2000/svg" xmlns:xlink="http://www.w3.org/1999/xlink" overflow="hidden"><defs><clipPath id="clip0"><path d="M29 58 1251 58 1251 662 29 662Z" fill-rule="evenodd" clip-rule="evenodd"/></clipPath></defs><g clip-path="url(#clip0)" transform="translate(-29 -58)"><path d="M142.5 338C142.5 336.619 143.619 335.5 145 335.5L1154 335.5C1155.38 335.5 1156.5 336.619 1156.5 338L1156.5 348C1156.5 349.381 1155.38 350.5 1154 350.5L145 350.5C143.619 350.5 142.5 349.381 142.5 348Z" stroke="#A6E9A6" stroke-width="13" stroke-linecap="round" stroke-linejoin="round" stroke-miterlimit="10" fill="#A6E9A6" fill-rule="evenodd"/><path d="M0 0 629.965 0.000209974" stroke="#2B292D" stroke-width="13" stroke-linecap="round" stroke-miterlimit="8" fill="none" fill-rule="evenodd" transform="matrix(1 0 0 -1 165.5 328.5)"/><path d="M849.5 327.5 898.764 327.5" stroke="#2B292D" stroke-width="13" stroke-linecap="round" stroke-miterlimit="8" fill="none" fill-rule="evenodd"/><path d="M948.5 327.5 1156.32 327.5" stroke="#2B292D" stroke-width="13" stroke-linecap="round" stroke-miterlimit="8" fill="none" fill-rule="evenodd"/><path d="M36.5001 164.502C36.5001 110.377 80.3771 66.5001 134.502 66.5001L1146.5 66.5001C1200.62 66.5001 1244.5 110.377 1244.5 164.502L1244.5 556.498C1244.5 610.623 1200.62 654.5 1146.5 654.5L134.502 654.5C80.3771 654.5 36.5001 610.623 36.5001 556.498Z" stroke="#2B292D" stroke-width="13" stroke-linecap="round" stroke-linejoin="round" stroke-miterlimit="10" fill="none" fill-rule="evenodd"/><path d="M152.5 200.5C152.5 189.454 161.678 180.5 173 180.5 184.322 180.5 193.5 189.454 193.5 200.5 193.5 211.546 184.322 220.5 173 220.5 161.678 220.5 152.5 211.546 152.5 200.5Z" stroke="#A6E9A6" stroke-width="13" stroke-linecap="round" stroke-linejoin="round" stroke-miterlimit="10" fill="#A6E9A6" fill-rule="evenodd"/><path d="M173.5 163.5 186.675 185.397" stroke="#2B292D" stroke-width="13" stroke-linecap="round" stroke-miterlimit="8" fill="none" fill-rule="evenodd"/><path d="M209.919 191.558 186.5 185.5" stroke="#2B292D" stroke-width="13" stroke-linecap="round" stroke-miterlimit="8" fill="none" fill-rule="evenodd"/><path d="M0 0 15.4839 19.4284" stroke="#2B292D" stroke-width="13" stroke-linecap="round" stroke-miterlimit="8" fill="none" fill-rule="evenodd" transform="matrix(-1 -8.74228e-08 -8.74228e-08 1 209.984 191.5)"/><path d="M196.007 236.549 194.5 211.5" stroke="#2B292D" stroke-width="13" stroke-linecap="round" stroke-miterlimit="8" fill="none" fill-rule="evenodd"/><path d="M196.116 236.623 173.5 227.5" stroke="#2B292D" stroke-width="13" stroke-linecap="round" stroke-miterlimit="8" fill="none" fill-rule="evenodd"/><path d="M0 0 13.1748 21.8972" stroke="#2B292D" stroke-width="13" stroke-linecap="round" stroke-miterlimit="8" fill="none" fill-rule="evenodd" transform="matrix(-1 -8.74228e-08 -8.74228e-08 1 172.675 163.5)"/><path d="M0 0 23.4186 6.05753" stroke="#2B292D" stroke-width="13" stroke-linecap="round" stroke-miterlimit="8" fill="none" fill-rule="evenodd" transform="matrix(1 0 0 -1 136.5 191.558)"/><path d="M136.5 191.5 151.984 210.928" stroke="#2B292D" stroke-width="13" stroke-linecap="round" stroke-miterlimit="8" fill="none" fill-rule="evenodd"/><path d="M0 0 1.50646 25.0489" stroke="#2B292D" stroke-width="13" stroke-linecap="round" stroke-miterlimit="8" fill="none" fill-rule="evenodd" transform="matrix(1 0 0 -1 150.5 236.549)"/><path d="M0 0 21.6329 9.12283" stroke="#2B292D" stroke-width="13" stroke-linecap="round" stroke-miterlimit="8" fill="none" fill-rule="evenodd" transform="matrix(1 0 0 -1 150.5 236.623)"/><path d="M257.5 203.5C257.5 192.454 266.454 183.5 277.5 183.5 288.546 183.5 297.5 192.454 297.5 203.5 297.5 214.546 288.546 223.5 277.5 223.5 266.454 223.5 257.5 214.546 257.5 203.5Z" stroke="#A6E9A6" stroke-width="13" stroke-linecap="round" stroke-linejoin="round" stroke-miterlimit="10" fill="#A6E9A6" fill-rule="evenodd"/><path d="M277.5 163.5 290.675 185.397" stroke="#2B292D" stroke-width="13" stroke-linecap="round" stroke-miterlimit="8" fill="none" fill-rule="evenodd"/><path d="M313.919 191.558 290.5 185.5" stroke="#2B292D" stroke-width="13" stroke-linecap="round" stroke-miterlimit="8" fill="none" fill-rule="evenodd"/><path d="M0 0 15.4839 19.4284" stroke="#2B292D" stroke-width="13" stroke-linecap="round" stroke-miterlimit="8" fill="none" fill-rule="evenodd" transform="matrix(-1 -8.74228e-08 -8.74228e-08 1 313.984 191.5)"/><path d="M300.007 236.549 298.5 211.5" stroke="#2B292D" stroke-width="13" stroke-linecap="round" stroke-miterlimit="8" fill="none" fill-rule="evenodd"/><path d="M300.116 236.623 277.5 227.5" stroke="#2B292D" stroke-width="13" stroke-linecap="round" stroke-miterlimit="8" fill="none" fill-rule="evenodd"/><path d="M0 0 13.1748 21.8972" stroke="#2B292D" stroke-width="13" stroke-linecap="round" stroke-miterlimit="8" fill="none" fill-rule="evenodd" transform="matrix(-1 -8.74228e-08 -8.74228e-08 1 276.675 163.5)"/><path d="M0 0 23.4186 6.05753" stroke="#2B292D" stroke-width="13" stroke-linecap="round" stroke-miterlimit="8" fill="none" fill-rule="evenodd" transform="matrix(1 0 0 -1 240.5 191.558)"/><path d="M240.5 191.5 255.984 210.928" stroke="#2B292D" stroke-width="13" stroke-linecap="round" stroke-miterlimit="8" fill="none" fill-rule="evenodd"/><path d="M0 0 1.50646 25.0489" stroke="#2B292D" stroke-width="13" stroke-linecap="round" stroke-miterlimit="8" fill="none" fill-rule="evenodd" transform="matrix(1 0 0 -1 254.5 236.549)"/><path d="M0 0 21.6329 9.12283" stroke="#2B292D" stroke-width="13" stroke-linecap="round" stroke-miterlimit="8" fill="none" fill-rule="evenodd" transform="matrix(1 0 0 -1 254.5 236.623)"/><path d="M360.5 204C360.5 192.678 369.678 183.5 381 183.5 392.322 183.5 401.5 192.678 401.5 204 401.5 215.322 392.322 224.5 381 224.5 369.678 224.5 360.5 215.322 360.5 204Z" stroke="#A6E9A6" stroke-width="13" stroke-linecap="round" stroke-linejoin="round" stroke-miterlimit="10" fill="#A6E9A6" fill-rule="evenodd"/><path d="M381.5 163.5 394.675 185.397" stroke="#2B292D" stroke-width="13" stroke-linecap="round" stroke-miterlimit="8" fill="none" fill-rule="evenodd"/><path d="M417.919 191.558 394.5 185.5" stroke="#2B292D" stroke-width="13" stroke-linecap="round" stroke-miterlimit="8" fill="none" fill-rule="evenodd"/><path d="M0 0 15.4839 19.4284" stroke="#2B292D" stroke-width="13" stroke-linecap="round" stroke-miterlimit="8" fill="none" fill-rule="evenodd" transform="matrix(-1 -8.74228e-08 -8.74228e-08 1 417.984 191.5)"/><path d="M404.007 236.549 402.5 211.5" stroke="#2B292D" stroke-width="13" stroke-linecap="round" stroke-miterlimit="8" fill="none" fill-rule="evenodd"/><path d="M404.116 236.623 381.5 227.5" stroke="#2B292D" stroke-width="13" stroke-linecap="round" stroke-miterlimit="8" fill="none" fill-rule="evenodd"/><path d="M0 0 13.1748 21.8972" stroke="#2B292D" stroke-width="13" stroke-linecap="round" stroke-miterlimit="8" fill="none" fill-rule="evenodd" transform="matrix(-1 -8.74228e-08 -8.74228e-08 1 380.675 163.5)"/><path d="M0 0 23.4186 6.05753" stroke="#2B292D" stroke-width="13" stroke-linecap="round" stroke-miterlimit="8" fill="none" fill-rule="evenodd" transform="matrix(1 0 0 -1 344.5 191.558)"/><path d="M344.5 191.5 359.984 210.928" stroke="#2B292D" stroke-width="13" stroke-linecap="round" stroke-miterlimit="8" fill="none" fill-rule="evenodd"/><path d="M0 0 1.50646 25.0489" stroke="#2B292D" stroke-width="13" stroke-linecap="round" stroke-miterlimit="8" fill="none" fill-rule="evenodd" transform="matrix(1 0 0 -1 358.5 236.549)"/><path d="M0 0 21.6329 9.12283" stroke="#2B292D" stroke-width="13" stroke-linecap="round" stroke-miterlimit="8" fill="none" fill-rule="evenodd" transform="matrix(1 0 0 -1 358.5 236.623)"/><path d="M465.5 205.5C465.5 194.454 474.454 185.5 485.5 185.5 496.546 185.5 505.5 194.454 505.5 205.5 505.5 216.546 496.546 225.5 485.5 225.5 474.454 225.5 465.5 216.546 465.5 205.5Z" stroke="#A6E9A6" stroke-width="13" stroke-linecap="round" stroke-linejoin="round" stroke-miterlimit="10" fill="#A6E9A6" fill-rule="evenodd"/><path d="M485.5 164.5 498.675 186.397" stroke="#2B292D" stroke-width="13" stroke-linecap="round" stroke-miterlimit="8" fill="none" fill-rule="evenodd"/><path d="M521.919 192.558 498.5 186.5" stroke="#2B292D" stroke-width="13" stroke-linecap="round" stroke-miterlimit="8" fill="none" fill-rule="evenodd"/><path d="M0 0 15.4839 19.4284" stroke="#2B292D" stroke-width="13" stroke-linecap="round" stroke-miterlimit="8" fill="none" fill-rule="evenodd" transform="matrix(-1 -8.74228e-08 -8.74228e-08 1 521.984 192.5)"/><path d="M508.007 237.549 506.5 212.5" stroke="#2B292D" stroke-width="13" stroke-linecap="round" stroke-miterlimit="8" fill="none" fill-rule="evenodd"/><path d="M508.116 237.623 485.5 228.5" stroke="#2B292D" stroke-width="13" stroke-linecap="round" stroke-miterlimit="8" fill="none" fill-rule="evenodd"/><path d="M0 0 13.1748 21.8972" stroke="#2B292D" stroke-width="13" stroke-linecap="round" stroke-miterlimit="8" fill="none" fill-rule="evenodd" transform="matrix(-1 -8.74228e-08 -8.74228e-08 1 485.675 164.5)"/><path d="M0 0 23.4186 6.05753" stroke="#2B292D" stroke-width="13" stroke-linecap="round" stroke-miterlimit="8" fill="none" fill-rule="evenodd" transform="matrix(1 0 0 -1 448.5 192.558)"/><path d="M448.5 192.5 463.984 211.928" stroke="#2B292D" stroke-width="13" stroke-linecap="round" stroke-miterlimit="8" fill="none" fill-rule="evenodd"/><path d="M0 0 1.50646 25.0489" stroke="#2B292D" stroke-width="13" stroke-linecap="round" stroke-miterlimit="8" fill="none" fill-rule="evenodd" transform="matrix(1 0 0 -1 462.5 237.549)"/><path d="M0 0 21.6329 9.12283" stroke="#2B292D" stroke-width="13" stroke-linecap="round" stroke-miterlimit="8" fill="none" fill-rule="evenodd" transform="matrix(1 0 0 -1 462.5 237.623)"/><path d="M569.5 205.5C569.5 194.454 578.454 185.5 589.5 185.5 600.546 185.5 609.5 194.454 609.5 205.5 609.5 216.546 600.546 225.5 589.5 225.5 578.454 225.5 569.5 216.546 569.5 205.5Z" stroke="#A6E9A6" stroke-width="13" stroke-linecap="round" stroke-linejoin="round" stroke-miterlimit="10" fill="#A6E9A6" fill-rule="evenodd"/><path d="M589.5 164.5 602.675 186.397" stroke="#2B292D" stroke-width="13" stroke-linecap="round" stroke-miterlimit="8" fill="none" fill-rule="evenodd"/><path d="M625.919 192.558 602.5 186.5" stroke="#2B292D" stroke-width="13" stroke-linecap="round" stroke-miterlimit="8" fill="none" fill-rule="evenodd"/><path d="M0 0 15.4839 19.4284" stroke="#2B292D" stroke-width="13" stroke-linecap="round" stroke-miterlimit="8" fill="none" fill-rule="evenodd" transform="matrix(-1 -8.74228e-08 -8.74228e-08 1 625.984 192.5)"/><path d="M612.007 237.549 610.5 212.5" stroke="#2B292D" stroke-width="13" stroke-linecap="round" stroke-miterlimit="8" fill="none" fill-rule="evenodd"/><path d="M612.116 237.623 589.5 228.5" stroke="#2B292D" stroke-width="13" stroke-linecap="round" stroke-miterlimit="8" fill="none" fill-rule="evenodd"/><path d="M0 0 13.1748 21.8972" stroke="#2B292D" stroke-width="13" stroke-linecap="round" stroke-miterlimit="8" fill="none" fill-rule="evenodd" transform="matrix(-1 -8.74228e-08 -8.74228e-08 1 589.675 164.5)"/><path d="M0 0 23.4186 6.05753" stroke="#2B292D" stroke-width="13" stroke-linecap="round" stroke-miterlimit="8" fill="none" fill-rule="evenodd" transform="matrix(1 0 0 -1 552.5 192.558)"/><path d="M552.5 192.5 567.984 211.928" stroke="#2B292D" stroke-width="13" stroke-linecap="round" stroke-miterlimit="8" fill="none" fill-rule="evenodd"/><path d="M0 0 1.50646 25.0489" stroke="#2B292D" stroke-width="13" stroke-linecap="round" stroke-miterlimit="8" fill="none" fill-rule="evenodd" transform="matrix(1 0 0 -1 566.5 237.549)"/><path d="M0 0 21.6329 9.12283" stroke="#2B292D" stroke-width="13" stroke-linecap="round" stroke-miterlimit="8" fill="none" fill-rule="evenodd" transform="matrix(1 0 0 -1 566.5 237.623)"/><path d="M142.5 438.5C142.5 436.843 143.843 435.5 145.5 435.5L1153.5 435.5C1155.16 435.5 1156.5 436.843 1156.5 438.5L1156.5 450.5C1156.5 452.157 1155.16 453.5 1153.5 453.5L145.5 453.5C143.843 453.5 142.5 452.157 142.5 450.5Z" stroke="#A6E9A6" stroke-width="13" stroke-linecap="round" stroke-linejoin="round" stroke-miterlimit="10" fill="#A6E9A6" fill-rule="evenodd"/><path d="M168.5 429.5 1156.15 429.5" stroke="#2B292D" stroke-width="13" stroke-linecap="round" stroke-miterlimit="8" fill="none" fill-rule="evenodd"/><path d="M142.5 543.5C142.5 541.843 143.843 540.5 145.5 540.5L945.5 540.5C947.157 540.5 948.5 541.843 948.5 543.5L948.5 555.5C948.5 557.157 947.157 558.5 945.5 558.5L145.5 558.5C143.843 558.5 142.5 557.157 142.5 555.5Z" stroke="#A6E9A6" stroke-width="13" stroke-linecap="round" stroke-linejoin="round" stroke-miterlimit="10" fill="#A6E9A6" fill-rule="evenodd"/><path d="M163.5 534.5 948.644 534.5" stroke="#2B292D" stroke-width="13" stroke-linecap="round" stroke-miterlimit="8" fill="none" fill-rule="evenodd"/><path d="M1102 630 1031.92 630C1023.13 630 1016 622.837 1016 614" fill="#A6E9A6" fill-rule="evenodd"/><path d="M1064 550C1064 543.925 1068.92 539 1075 539L1110 539C1116.08 539 1121 543.925 1121 550L1121 550C1121 556.075 1116.08 561 1110 561L1075 561C1068.92 561 1064 556.075 1064 550Z" fill="#A6E9A6" fill-rule="evenodd"/><path d="M1064 573C1064 566.925 1068.92 562 1075 562L1110 562C1116.08 562 1121 566.925 1121 573L1121 573C1121 579.075 1116.08 584 1110 584L1075 584C1068.92 584 1064 579.075 1064 573Z" fill="#A6E9A6" fill-rule="evenodd"/><path d="M1064 596C1064 589.925 1068.92 585 1075 585L1110 585C1116.08 585 1121 589.925 1121 596L1121 596C1121 602.075 1116.08 607 1110 607L1075 607C1068.92 607 1064 602.075 1064 596Z" fill="#A6E9A6" fill-rule="evenodd"/><path d="M1064 619C1064 612.925 1068.92 608 1075 608L1110 608C1116.08 608 1121 612.925 1121 619L1121 619C1121 625.075 1116.08 630 1110 630L1075 630C1068.92 630 1064 625.075 1064 619Z" fill="#A6E9A6" fill-rule="evenodd"/><path d="M0 0 48.7668 3.55738" fill="#A6E9A6" fill-rule="evenodd" transform="matrix(-1 -8.74228e-08 -8.74228e-08 1 1091.77 539)"/><path d="M1016.09 543.01 1015.72 507.911C1015.64 500.141 1021.69 493.779 1029.23 493.7L1029.23 493.7C1036.77 493.62 1042.95 499.854 1043.04 507.623L1043.4 542.723" fill="#A6E9A6" fill-rule="evenodd"/><path d="M1016.09 613.859 1016 543" fill="#A6E9A6" fill-rule="evenodd"/><path d="M1016 539.19C1016 536.324 1018.32 534 1021.19 534L1094.81 534C1097.68 534 1100 536.324 1100 539.19L1100 612.81C1100 615.676 1097.68 618 1094.81 618L1021.19 618C1018.32 618 1016 615.676 1016 612.81Z" fill="#A6E9A6" fill-rule="evenodd"/><path d="M1114.5 624.5 1042.79 624.5C1033.79 624.5 1026.5 619.575 1026.5 613.5" stroke="#2B292D" stroke-width="13" stroke-linecap="round" stroke-linejoin="round" stroke-miterlimit="10" fill="none" fill-rule="evenodd"/><path d="M1075.5 545.5C1075.5 539.425 1080.42 534.5 1086.5 534.5L1122.5 534.5C1128.58 534.5 1133.5 539.425 1133.5 545.5L1133.5 545.5C1133.5 551.575 1128.58 556.5 1122.5 556.5L1086.5 556.5C1080.42 556.5 1075.5 551.575 1075.5 545.5Z" stroke="#2B292D" stroke-width="13" stroke-linecap="round" stroke-linejoin="round" stroke-miterlimit="10" fill="none" fill-rule="evenodd"/><path d="M1075.5 568.5C1075.5 562.425 1080.42 557.5 1086.5 557.5L1122.5 557.5C1128.58 557.5 1133.5 562.425 1133.5 568.5L1133.5 568.5C1133.5 574.575 1128.58 579.5 1122.5 579.5L1086.5 579.5C1080.42 579.5 1075.5 574.575 1075.5 568.5Z" stroke="#2B292D" stroke-width="13" stroke-linecap="round" stroke-linejoin="round" stroke-miterlimit="10" fill="none" fill-rule="evenodd"/><path d="M1075.5 591C1075.5 585.201 1080.2 580.5 1086 580.5L1123 580.5C1128.8 580.5 1133.5 585.201 1133.5 591L1133.5 591C1133.5 596.799 1128.8 601.5 1123 601.5L1086 601.5C1080.2 601.5 1075.5 596.799 1075.5 591Z" stroke="#2B292D" stroke-width="13" stroke-linecap="round" stroke-linejoin="round" stroke-miterlimit="10" fill="none" fill-rule="evenodd"/><path d="M1075.5 613.5C1075.5 607.425 1080.42 602.5 1086.5 602.5L1122.5 602.5C1128.58 602.5 1133.5 607.425 1133.5 613.5L1133.5 613.5C1133.5 619.575 1128.58 624.5 1122.5 624.5L1086.5 624.5C1080.42 624.5 1075.5 619.575 1075.5 613.5Z" stroke="#2B292D" stroke-width="13" stroke-linecap="round" stroke-linejoin="round" stroke-miterlimit="10" fill="none" fill-rule="evenodd"/><path d="M1122.38 534.787 1055.5 534.5" stroke="#2B292D" stroke-width="13" stroke-linecap="round" stroke-miterlimit="8" fill="none" fill-rule="evenodd"/><path d="M1026.06 613.883C1026.03 600.768 1026.28 512.939 1026.25 499.823 1026.17 491.922 1032.32 485.451 1040 485.37L1040 485.37C1047.68 485.29 1053.97 491.63 1054.05 499.531 1053.98 510.842 1054.21 522.007 1054.14 533.318" stroke="#2B292D" stroke-width="13.3333" stroke-linecap="round" stroke-linejoin="round" stroke-miterlimit="10" fill="none" fill-rule="evenodd"/><path d="M1040 204C1040 184.67 1055.67 169 1075 169 1094.33 169 1110 184.67 1110 204 1110 223.33 1094.33 239 1075 239 1055.67 239 1040 223.33 1040 204Z" fill="#A6E9A6" fill-rule="evenodd"/><path d="M1021 273.9C1021.06 246.286 1045.28 223.945 1075.11 224 1104.86 224.055 1128.96 246.382 1129 273.93L1075 274Z" fill="#A6E9A6" fill-rule="evenodd"/><path d="M999.5 151.667C999.5 137.768 1010.77 126.5 1024.67 126.5L1125.33 126.5C1139.23 126.5 1150.5 137.768 1150.5 151.667L1150.5 252.333C1150.5 266.232 1139.23 277.5 1125.33 277.5L1024.67 277.5C1010.77 277.5 999.5 266.232 999.5 252.333Z" stroke="#2B292D" stroke-width="13" stroke-linecap="round" stroke-linejoin="round" stroke-miterlimit="10" fill="none" fill-rule="evenodd"/></g></svg>