<svg width="258" height="258" xmlns="http://www.w3.org/2000/svg" xmlns:xlink="http://www.w3.org/1999/xlink" overflow="hidden"><defs><clipPath id="clip0"><path d="M66 429 324 429 324 687 66 687Z" fill-rule="evenodd" clip-rule="evenodd"/></clipPath></defs><g clip-path="url(#clip0)" transform="translate(-66 -429)"><path d="M67 538.5C67 488.518 107.742 448 158 448 208.258 448 249 488.518 249 538.5 249 588.482 208.258 629 158 629 107.742 629 67 588.482 67 538.5Z" fill="#A6E9A6" fill-rule="evenodd"/><path d="M168.2 438.5C218.292 438.5 258.9 479.075 258.9 529.126 258.9 547.896 253.189 565.332 243.41 579.796L238.204 586.1 304.114 651.956C309.962 657.8 309.962 667.274 304.114 673.117 298.266 678.961 288.784 678.961 282.936 673.117L215.752 605.988 203.504 612.631C192.653 617.217 180.723 619.753 168.2 619.753 118.108 619.753 77.5001 579.178 77.5001 529.126 77.5001 479.075 118.108 438.5 168.2 438.5Z" stroke="#2B292D" stroke-width="13" stroke-miterlimit="8" fill="none" fill-rule="evenodd"/><path d="M159 458.5C180.329 458.5 200.785 466.964 215.878 482.034" stroke="#2B292D" stroke-width="13" stroke-linecap="round" stroke-linejoin="round" stroke-miterlimit="10" fill="none" fill-rule="evenodd"/><path d="M229.04 499.317C230.54 501.965 231.888 504.696 233.079 507.496" stroke="#2B292D" stroke-width="13" stroke-linecap="round" stroke-miterlimit="8" fill="none" fill-rule="evenodd"/></g></svg>