<svg width="1160" height="621" xmlns="http://www.w3.org/2000/svg" xmlns:xlink="http://www.w3.org/1999/xlink" overflow="hidden"><defs><clipPath id="clip0"><path d="M89 56 1249 56 1249 677 89 677Z" fill-rule="evenodd" clip-rule="evenodd"/></clipPath></defs><g clip-path="url(#clip0)" transform="translate(-89 -56)"><path d="M97.5001 116.032C97.5001 87.0192 121.019 63.5001 150.032 63.5001L786.968 63.5001C815.981 63.5001 839.5 87.0192 839.5 116.032L839.5 193.968C839.5 222.981 815.981 246.5 786.968 246.5L150.032 246.5C121.019 246.5 97.5001 222.981 97.5001 193.968Z" stroke="#2B292D" stroke-width="13" stroke-linecap="round" stroke-linejoin="round" stroke-miterlimit="10" fill="none" fill-rule="evenodd"/><path d="M179.5 116.333C179.5 115.321 180.321 114.5 181.333 114.5L735.667 114.5C736.679 114.5 737.5 115.321 737.5 116.333L737.5 123.667C737.5 124.679 736.679 125.5 735.667 125.5L181.333 125.5C180.321 125.5 179.5 124.679 179.5 123.667Z" stroke="#A6E9A6" stroke-width="13" stroke-linecap="round" stroke-linejoin="round" stroke-miterlimit="10" fill="#A6E9A6" fill-rule="evenodd"/><path d="M179.5 191.167C179.5 190.246 180.246 189.5 181.167 189.5L735.833 189.5C736.754 189.5 737.5 190.246 737.5 191.167L737.5 197.833C737.5 198.754 736.754 199.5 735.833 199.5L181.167 199.5C180.246 199.5 179.5 198.754 179.5 197.833Z" stroke="#A6E9A6" stroke-width="13" stroke-linecap="round" stroke-linejoin="round" stroke-miterlimit="10" fill="#A6E9A6" fill-rule="evenodd"/><path d="M194.5 112.5 741.978 112.5" stroke="#2B292D" stroke-width="13" stroke-linecap="round" stroke-miterlimit="8" fill="none" fill-rule="evenodd"/><path d="M192.5 184.5 537.022 184.5" stroke="#2B292D" stroke-width="13" stroke-linecap="round" stroke-miterlimit="8" fill="none" fill-rule="evenodd"/><path d="M568.5 183.5 595.631 183.5" stroke="#2B292D" stroke-width="13" stroke-linecap="round" stroke-miterlimit="8" fill="none" fill-rule="evenodd"/><path d="M628.5 184.5 742.239 184.5" stroke="#2B292D" stroke-width="13" stroke-linecap="round" stroke-miterlimit="8" fill="none" fill-rule="evenodd"/><path d="M97.5001 328.032C97.5001 299.019 121.019 275.5 150.032 275.5L786.968 275.5C815.981 275.5 839.5 299.019 839.5 328.032L839.5 405.968C839.5 434.981 815.981 458.5 786.968 458.5L150.032 458.5C121.019 458.5 97.5001 434.981 97.5001 405.968Z" stroke="#2B292D" stroke-width="13" stroke-linecap="round" stroke-linejoin="round" stroke-miterlimit="10" fill="none" fill-rule="evenodd"/><path d="M179.5 328.333C179.5 327.321 180.321 326.5 181.333 326.5L735.667 326.5C736.679 326.5 737.5 327.321 737.5 328.333L737.5 335.667C737.5 336.679 736.679 337.5 735.667 337.5L181.333 337.5C180.321 337.5 179.5 336.679 179.5 335.667Z" stroke="#A6E9A6" stroke-width="13" stroke-linecap="round" stroke-linejoin="round" stroke-miterlimit="10" fill="#A6E9A6" fill-rule="evenodd"/><path d="M179.5 402.333C179.5 401.321 180.321 400.5 181.333 400.5L735.667 400.5C736.679 400.5 737.5 401.321 737.5 402.333L737.5 409.667C737.5 410.679 736.679 411.5 735.667 411.5L181.333 411.5C180.321 411.5 179.5 410.679 179.5 409.667Z" stroke="#A6E9A6" stroke-width="13" stroke-linecap="round" stroke-linejoin="round" stroke-miterlimit="10" fill="#A6E9A6" fill-rule="evenodd"/><path d="M194.5 324.5 741.978 324.5" stroke="#2B292D" stroke-width="13" stroke-linecap="round" stroke-miterlimit="8" fill="none" fill-rule="evenodd"/><path d="M192.5 396.5 537.022 396.5" stroke="#2B292D" stroke-width="13" stroke-linecap="round" stroke-miterlimit="8" fill="none" fill-rule="evenodd"/><path d="M568.5 395.5 595.631 395.5" stroke="#2B292D" stroke-width="13" stroke-linecap="round" stroke-miterlimit="8" fill="none" fill-rule="evenodd"/><path d="M628.5 396.5 742.239 396.5" stroke="#2B292D" stroke-width="13" stroke-linecap="round" stroke-miterlimit="8" fill="none" fill-rule="evenodd"/><path d="M97.5001 540.032C97.5001 511.019 121.019 487.5 150.032 487.5L786.968 487.5C815.981 487.5 839.5 511.019 839.5 540.032L839.5 617.969C839.5 646.981 815.981 670.5 786.968 670.5L150.032 670.5C121.019 670.5 97.5001 646.981 97.5001 617.969Z" stroke="#2B292D" stroke-width="13" stroke-linecap="round" stroke-linejoin="round" stroke-miterlimit="10" fill="none" fill-rule="evenodd"/><path d="M179.5 540.333C179.5 539.321 180.321 538.5 181.333 538.5L735.667 538.5C736.679 538.5 737.5 539.321 737.5 540.333L737.5 547.667C737.5 548.679 736.679 549.5 735.667 549.5L181.333 549.5C180.321 549.5 179.5 548.679 179.5 547.667Z" stroke="#A6E9A6" stroke-width="13" stroke-linecap="round" stroke-linejoin="round" stroke-miterlimit="10" fill="#A6E9A6" fill-rule="evenodd"/><path d="M179.5 614.333C179.5 613.321 180.321 612.5 181.333 612.5L735.667 612.5C736.679 612.5 737.5 613.321 737.5 614.333L737.5 621.667C737.5 622.679 736.679 623.5 735.667 623.5L181.333 623.5C180.321 623.5 179.5 622.679 179.5 621.667Z" stroke="#A6E9A6" stroke-width="13" stroke-linecap="round" stroke-linejoin="round" stroke-miterlimit="10" fill="#A6E9A6" fill-rule="evenodd"/><path d="M194.5 536.5 741.978 536.5" stroke="#2B292D" stroke-width="13" stroke-linecap="round" stroke-miterlimit="8" fill="none" fill-rule="evenodd"/><path d="M192.5 608.5 537.022 608.5" stroke="#2B292D" stroke-width="13" stroke-linecap="round" stroke-miterlimit="8" fill="none" fill-rule="evenodd"/><path d="M568.5 607.5 595.631 607.5" stroke="#2B292D" stroke-width="13" stroke-linecap="round" stroke-miterlimit="8" fill="none" fill-rule="evenodd"/><path d="M628.5 608.5 742.239 608.5" stroke="#2B292D" stroke-width="13" stroke-linecap="round" stroke-miterlimit="8" fill="none" fill-rule="evenodd"/><path d="M934.5 114.668C934.5 86.4085 957.409 63.5001 985.668 63.5001L1190.33 63.5001C1218.59 63.5001 1241.5 86.4085 1241.5 114.668L1241.5 619.333C1241.5 647.592 1218.59 670.5 1190.33 670.5L985.668 670.5C957.409 670.5 934.5 647.592 934.5 619.333Z" stroke="#2B292D" stroke-width="13" stroke-linecap="round" stroke-linejoin="round" stroke-miterlimit="10" fill="none" fill-rule="evenodd"/><path d="M990.5 169.5 1190.97 169.5" stroke="#2B292D" stroke-width="13" stroke-linecap="round" stroke-miterlimit="8" fill="none" fill-rule="evenodd"/><path d="M1024 169.5C1024 157.626 1033.63 148 1045.5 148 1057.37 148 1067 157.626 1067 169.5 1067 181.374 1057.37 191 1045.5 191 1033.63 191 1024 181.374 1024 169.5Z" fill="#A6E9A6" fill-rule="evenodd"/><path d="M990.5 270.5C990.5 269.948 990.948 269.5 991.5 269.5L1046.5 269.5C1047.05 269.5 1047.5 269.948 1047.5 270.5L1047.5 274.5C1047.5 275.052 1047.05 275.5 1046.5 275.5L991.5 275.5C990.948 275.5 990.5 275.052 990.5 274.5Z" stroke="#A6E9A6" stroke-width="13" stroke-linecap="round" stroke-linejoin="round" stroke-miterlimit="10" fill="#A6E9A6" fill-rule="evenodd"/><path d="M1005.5 266.5 1061.23 266.5" stroke="#2B292D" stroke-width="13" stroke-linecap="round" stroke-miterlimit="8" fill="none" fill-rule="evenodd"/><path d="M989.5 332.667C989.5 332.022 990.022 331.5 990.667 331.5L1045.33 331.5C1045.98 331.5 1046.5 332.022 1046.5 332.667L1046.5 337.333C1046.5 337.978 1045.98 338.5 1045.33 338.5L990.667 338.5C990.022 338.5 989.5 337.978 989.5 337.333Z" stroke="#A6E9A6" stroke-width="13" stroke-linecap="round" stroke-linejoin="round" stroke-miterlimit="10" fill="#A6E9A6" fill-rule="evenodd"/><path d="M1004.5 328.5 1060.23 328.5" stroke="#2B292D" stroke-width="13" stroke-linecap="round" stroke-miterlimit="8" fill="none" fill-rule="evenodd"/><path d="M989.5 394.667C989.5 394.022 990.022 393.5 990.667 393.5L1045.33 393.5C1045.98 393.5 1046.5 394.022 1046.5 394.667L1046.5 399.333C1046.5 399.978 1045.98 400.5 1045.33 400.5L990.667 400.5C990.022 400.5 989.5 399.978 989.5 399.333Z" stroke="#A6E9A6" stroke-width="13" stroke-linecap="round" stroke-linejoin="round" stroke-miterlimit="10" fill="#A6E9A6" fill-rule="evenodd"/><path d="M1004.5 391.5 1060.23 391.5" stroke="#2B292D" stroke-width="13" stroke-linecap="round" stroke-miterlimit="8" fill="none" fill-rule="evenodd"/><path d="M1109.5 316.5 1122.21 337.001" stroke="#A6E9A6" stroke-width="13" stroke-linecap="round" stroke-miterlimit="8" fill="none" fill-rule="evenodd"/><path d="M0 0 31.7647 53.6778" stroke="#A6E9A6" stroke-width="13" stroke-linecap="round" stroke-miterlimit="8" fill="none" fill-rule="evenodd" transform="matrix(1 0 0 -1 1121.5 337.178)"/><path d="M990.5 487.334C990.5 471.409 1003.41 458.5 1019.33 458.5L1162.67 458.5C1178.59 458.5 1191.5 471.409 1191.5 487.334L1191.5 602.666C1191.5 618.591 1178.59 631.5 1162.67 631.5L1019.33 631.5C1003.41 631.5 990.5 618.591 990.5 602.666Z" stroke="#2B292D" stroke-width="13" stroke-linecap="round" stroke-linejoin="round" stroke-miterlimit="10" fill="none" fill-rule="evenodd"/><path d="M1045.5 549.5C1045.5 524.095 1066.09 503.5 1091.5 503.5 1116.91 503.5 1137.5 524.095 1137.5 549.5 1137.5 574.905 1116.91 595.5 1091.5 595.5 1066.09 595.5 1045.5 574.905 1045.5 549.5Z" stroke="#2B292D" stroke-width="13" stroke-linecap="round" stroke-linejoin="round" stroke-miterlimit="10" fill="none" fill-rule="evenodd"/><path d="M1133.75 458.733C1145.17 471.334 1144.21 490.807 1131.61 502.228 1124.01 509.121 1116.4 516.014 1108.8 522.907 1101.9 515.302 1095.01 507.697 1088.12 500.091 1076.7 487.491 1077.65 468.017 1090.25 456.597 1102.86 445.176 1122.33 446.133 1133.75 458.733Z" stroke="#2B292D" stroke-width="13.3333" stroke-linecap="round" stroke-linejoin="round" stroke-miterlimit="10" fill="#A6E9A6" fill-rule="evenodd"/><path d="M1058.5 526.5C1062.92 526.5 1066.5 534.783 1066.5 545" stroke="#2B292D" stroke-width="13" stroke-linecap="round" stroke-miterlimit="8" fill="none" fill-rule="evenodd"/><path d="M1067.65 546.185C1071.36 545.116 1075.31 545.302 1078.91 546.715" stroke="#2B292D" stroke-width="13" stroke-linecap="round" stroke-miterlimit="8" fill="none" fill-rule="evenodd"/><path d="M1078.84 547.254C1087.35 557.747 1085.51 573.344 1074.73 582.091 1073.26 583.28 1071.67 584.305 1069.98 585.146" stroke="#2B292D" stroke-width="13.3333" stroke-linecap="round" stroke-miterlimit="8" fill="none" fill-rule="evenodd"/><path d="M1082.15 521.659C1078.81 515.976 1080.71 508.66 1086.39 505.319" stroke="#2B292D" stroke-width="13.3333" stroke-linecap="round" stroke-miterlimit="8" fill="none" fill-rule="evenodd"/><path d="M1082.15 521.659C1078.81 515.976 1080.71 508.66 1086.39 505.319" stroke="#2B292D" stroke-width="13.3333" stroke-linecap="round" stroke-miterlimit="8" fill="none" fill-rule="evenodd"/><path d="M1108.75 538.487C1102.85 542.307 1092.17 536.298 1084.89 525.066" stroke="#2B292D" stroke-width="13.3333" stroke-linecap="round" stroke-miterlimit="8" fill="none" fill-rule="evenodd"/><path d="M1128.04 571.574C1115.82 560.917 1106.69 546.408 1107.66 539.168 1107.7 538.869 1107.76 538.585 1107.83 538.317" stroke="#2B292D" stroke-width="13.3333" stroke-linecap="round" stroke-miterlimit="8" fill="none" fill-rule="evenodd"/></g></svg>