<svg width="735" height="650" xmlns="http://www.w3.org/2000/svg" xmlns:xlink="http://www.w3.org/1999/xlink" overflow="hidden"><defs><clipPath id="clip0"><path d="M139 8 874 8 874 658 139 658Z" fill-rule="evenodd" clip-rule="evenodd"/></clipPath></defs><g clip-path="url(#clip0)" transform="translate(-139 -8)"><path d="M431.185 43.0409 363.559 142.176 369.445 136.325 372.975 167.828 357.013 151.772 356.975 151.828 339.469 134.219Z" fill="#A6E9A6" fill-rule="evenodd"/><path d="M0 0 214.94 29.2749" stroke="#2B292D" stroke-width="13.3333" stroke-linecap="round" stroke-miterlimit="8" fill="none" fill-rule="evenodd" transform="matrix(-0.894155 0.447758 0.447758 0.894155 461.93 15.0905)"/><path d="M0 0 56.4327 2.83244" stroke="#2B292D" stroke-width="13" stroke-linecap="round" stroke-miterlimit="8" fill="none" fill-rule="evenodd" transform="matrix(1 0 0 -1 283.5 138.332)"/><path d="M340.5 135.5 375.668 179.275" stroke="#2B292D" stroke-width="13" stroke-linecap="round" stroke-miterlimit="8" fill="none" fill-rule="evenodd"/><path d="M375.699 178.866 370.5 126.5" stroke="#2B292D" stroke-width="13" stroke-linecap="round" stroke-miterlimit="8" fill="none" fill-rule="evenodd"/><path d="M370.5 126.5 424.71 133.645" stroke="#2B292D" stroke-width="13" stroke-linecap="round" stroke-miterlimit="8" fill="none" fill-rule="evenodd"/><path d="M0 0 92.2658 110.995" stroke="#2B292D" stroke-width="13" stroke-linecap="round" stroke-miterlimit="8" fill="none" fill-rule="evenodd" transform="matrix(1 0 0 -1 370.5 126.495)"/><path d="M379.466 164.205 376.582 133.403 400.055 135.372Z" fill="#A6E9A6" fill-rule="evenodd"/><path d="M0 0 48.92 24.4599" stroke="#2B292D" stroke-width="13.3333" stroke-linecap="round" stroke-miterlimit="8" fill="none" fill-rule="evenodd" transform="matrix(0.894154 -0.447759 -0.447759 -0.894154 374.863 178.451)"/><path d="M0 0 10.2971 31.7387" stroke="#2B292D" stroke-width="13" stroke-linecap="round" stroke-miterlimit="8" fill="none" fill-rule="evenodd" transform="matrix(-1 -8.74228e-08 -8.74228e-08 1 462.797 15.5001)"/><path d="M0 0 1.9284 5.67402" stroke="#2B292D" stroke-width="13" stroke-linecap="round" stroke-miterlimit="8" fill="none" fill-rule="evenodd" transform="matrix(-1 -8.74228e-08 -8.74228e-08 1 446.428 65.5001)"/><path d="M0 0 14.1093 42.8473" stroke="#2B292D" stroke-width="13" stroke-linecap="round" stroke-miterlimit="8" fill="none" fill-rule="evenodd" transform="matrix(-1 -8.74228e-08 -8.74228e-08 1 438.609 90.5001)"/><path d="M0 0 30.3074 29.6815" stroke="#2B292D" stroke-width="13" stroke-linecap="round" stroke-miterlimit="8" fill="none" fill-rule="evenodd" transform="matrix(-1 -8.74228e-08 -8.74228e-08 1 209.807 292.5)"/><path d="M148.698 407.678C146.831 391.057 149.419 374.265 156.196 359.02" stroke="#2B292D" stroke-width="13.3333" stroke-linecap="round" stroke-miterlimit="8" fill="none" fill-rule="evenodd"/><path d="M261.385 468.314C230.253 478.497 196.167 471.815 171.313 450.654" stroke="#2B292D" stroke-width="13.3333" stroke-linecap="round" stroke-miterlimit="8" fill="none" fill-rule="evenodd"/><path d="M0 0 53.0623 43.1584" stroke="#2B292D" stroke-width="13" stroke-linecap="round" stroke-miterlimit="8" fill="none" fill-rule="evenodd" transform="matrix(-1 -8.74228e-08 -8.74228e-08 1 296.562 219.5)"/><path d="M313.643 427.308C307.19 438.093 298.636 447.465 288.486 454.87" stroke="#2B292D" stroke-width="13.3333" stroke-linecap="round" stroke-miterlimit="8" fill="none" fill-rule="evenodd"/><path d="M336.649 386.586C357.906 361.95 389.144 348.337 421.573 349.578" stroke="#2B292D" stroke-width="13" stroke-linecap="round" stroke-miterlimit="8" fill="none" fill-rule="evenodd"/><path d="M461.758 354.458C483.353 354.556 504.413 361.182 522.172 373.468" stroke="#2B292D" stroke-width="13.3333" stroke-linecap="round" stroke-miterlimit="8" fill="none" fill-rule="evenodd"/><path d="M866.826 624.998C858.346 630.045 849.209 633.895 839.674 636.44" stroke="#2B292D" stroke-width="13.3333" stroke-linecap="round" stroke-miterlimit="8" fill="none" fill-rule="evenodd"/><path d="M338.894 182.904C334.063 188.633 328.561 193.761 322.507 198.178" stroke="#2B292D" stroke-width="13.3333" stroke-linecap="round" stroke-miterlimit="8" fill="none" fill-rule="evenodd"/><path d="M704.156 649.14C685.619 643.016 668.799 636.497 654.545 629.913" stroke="#2B292D" stroke-width="13.3333" stroke-linecap="round" stroke-miterlimit="8" fill="none" fill-rule="evenodd"/><path d="M801.643 645.381C782.42 647.832 763.247 649.537 744.958 650.422" stroke="#2B292D" stroke-width="13.3333" stroke-linecap="round" stroke-miterlimit="8" fill="none" fill-rule="evenodd"/><path d="M553.529 412.526C570.823 432.773 580.147 456.792 580.077 480.919" stroke="#2B292D" stroke-width="13.3333" stroke-linecap="round" stroke-miterlimit="8" fill="none" fill-rule="evenodd"/><path d="M621.111 603.092C601.333 581.893 588.235 554.313 583.6 524.106" stroke="#2B292D" stroke-width="13.3333" stroke-linecap="round" stroke-miterlimit="8" fill="none" fill-rule="evenodd"/></g></svg>